<?xml version="1.0" encoding="utf-8"?>
<!-- Generator: Adobe Illustrator 15.0.0, SVG Export Plug-In . SVG Version: 6.00 Build 0)  -->
<!DOCTYPE svg PUBLIC "-//W3C//DTD SVG 1.1//EN" "http://www.w3.org/Graphics/SVG/1.1/DTD/svg11.dtd">
<svg version="1.1" id="duck" xmlns="http://www.w3.org/2000/svg" xmlns:xlink="http://www.w3.org/1999/xlink" x="0px" y="0px"
	 width="498.149px" height="578.723px" viewBox="0 0 498.149 578.723" style="enable-background:new 0 0 498.149 578.723;"
	 xml:space="preserve">
<g id="Foot_Left">
	<g>
		<path style="fill-rule:evenodd;clip-rule:evenodd;fill:#F3903F;" d="M262.881,413.055c4.283-7.542,9.68-25.659,9.68-25.659
			l-17.591,14.64c0,0-9.838,22.053-9.32,37.648c0.518,15.597-1.836,38.146-1.836,38.146s-70.378,28.533-66.905,36.44
			c3.472,7.908,18.919,25.507,32.228,26.543c13.309,1.035,37.185,5.099,37.185,5.099s20.185-37.479,13.382-53.45
			c-6.804-15.973-3.033-43.922-3.033-43.922S258.598,420.596,262.881,413.055z"/>
	</g>
</g>
<g id="Foot_Right">
	<g>
		<path style="fill-rule:evenodd;clip-rule:evenodd;fill:#F3903F;" d="M355.396,463.396c0,0-10.096-60.05,0.254-81.713
			c10.348-21.663,13.2-32.736,13.2-32.736l-28.7,13.986c0,0-2.624,65.619-1.667,79.667c0.958,14.048,4.667,62.333,4.667,62.333
			s-79.959,41.128-73.283,49.925c3.183,4.193,12.783,13.575,32.783,12.075c12,12,26.441,13.547,33.25,10.334
			c13.011-6.14,31.104-53.465,27.261-64.851C359.317,501.031,355.396,463.396,355.396,463.396z"/>
	</g>
</g>
<g id="Body">
	<g>
		<path style="fill-rule:evenodd;clip-rule:evenodd;fill:#FFFFFF;" d="M112.149,12.934c57.714-30.356,114.986-1.405,124,26.667
			c20.486,47.928-14.92,110.31-8.46,137.071s34.281,50.141,96.059,12.336c61.778-37.804,62.579-31.312,109.064-71.821
			c24.282-21.161,65.062-12.462,65.062-12.462s4.74,34.069-25.09,47.776c4.086,21.956-1.323,6.14-2.448,37.124
			c-1.126,30.986,4.411,81.394,0.948,111.433c-3.463,30.04-38.536,85.357-67.938,102.429
			c-29.403,17.071-101.649,46.408-136.064,45.325s-115.862-10.007-138.893-38.868s-32.365-103.587-20.334-143.975
			c9.214-30.932,13.428-36.035,13.095-52.035s10-31-31-48.333c-13.55-19.46-27.887-52.612-27.887-52.612
			S54.435,43.289,112.149,12.934z"/>
	</g>
</g>
<g id="beak">
	<g>
		<path style="fill-rule:evenodd;clip-rule:evenodd;fill:#F3903F;" d="M94.149,105.184c-8.222-0.793-18.575-2.528-26.5-5.5
			c-5.918-1.89-9.122-0.072-13.389,13.598c-4.266,13.67-23.663,32.167-51.598,66.045c-13.67,15.453,28.614,39.153,51.236,22.357
			c31.194-20.473,78.363-38.404,85.249-64.033C103.59,128.189,114.806,106.054,94.149,105.184z"/>
	</g>
</g>
<g id="eye" style="opacity:0.7098;">
	<g>
		
			<ellipse transform="matrix(-0.9876 -0.157 0.157 -0.9876 327.8464 189.0246)" style="fill-rule:evenodd;clip-rule:evenodd;fill:#010202;" cx="171.388" cy="81.565" rx="11.281" ry="12.352"/>
	</g>
</g>
</svg>
