<?xml version="1.0" encoding="utf-8"?>
<!-- Generator: Adobe Illustrator 15.0.0, SVG Export Plug-In . SVG Version: 6.00 Build 0)  -->
<!DOCTYPE svg PUBLIC "-//W3C//DTD SVG 1.1//EN" "http://www.w3.org/Graphics/SVG/1.1/DTD/svg11.dtd">
<svg version="1.1" id="duck" xmlns="http://www.w3.org/2000/svg" xmlns:xlink="http://www.w3.org/1999/xlink" x="0px" y="0px"
	 width="500.649px" height="581.223px" viewBox="0 0 500.649 581.223" style="enable-background:new 0 0 500.649 581.223;"
	 xml:space="preserve">
<g id="Foot_Left">
	<g>
		<path style="fill-rule:evenodd;clip-rule:evenodd;fill:#010202;" d="M262.881,415.555c4.283-7.542,9.68-25.659,9.68-25.659
			l-17.591,14.64c0,0-9.838,22.053-9.32,37.648c0.518,15.597-1.836,38.146-1.836,38.146s-70.378,28.533-66.905,36.44
			c3.472,7.908,18.919,25.507,32.228,26.543c13.309,1.035,37.185,5.099,37.185,5.099s20.185-37.479,13.382-53.45
			c-6.804-15.973-3.033-43.922-3.033-43.922S258.598,423.096,262.881,415.555z"/>
	</g>
</g>
<g id="Foot_Right">
	<g>
		<path style="fill-rule:evenodd;clip-rule:evenodd;fill:#010202;" d="M355.396,465.896c0,0-10.096-60.05,0.254-81.713
			c10.348-21.663,13.2-32.736,13.2-32.736l-28.7,13.986c0,0-2.624,65.619-1.667,79.667c0.958,14.048,4.667,62.333,4.667,62.333
			s-79.959,41.128-73.283,49.925c3.183,4.193,12.783,13.575,32.783,12.075c12,12,26.441,13.547,33.25,10.334
			c13.011-6.14,31.104-53.465,27.261-64.851C359.317,503.531,355.396,465.896,355.396,465.896z"/>
	</g>
</g>
<g id="Body">
	<g>
		<path style="fill-rule:evenodd;clip-rule:evenodd;fill:#FFFFFF;" d="M497.874,107.225c0,0-40.779-8.699-65.062,12.462
			c-46.485,40.51-47.286,34.018-109.064,71.821c-61.777,37.805-89.599,14.426-96.059-12.336s28.946-89.144,8.46-137.071
			c-9.014-28.072-66.286-57.023-124-26.667C54.435,45.789,62.263,115.488,62.263,115.488s14.337,33.152,27.887,52.612
			c41,17.333,30.667,32.333,31,48.333s-3.881,21.104-13.095,52.035c-12.031,40.388-2.696,115.113,20.334,143.975
			s104.478,37.785,138.893,38.868s106.661-28.254,136.064-45.325c29.402-17.071,64.476-72.389,67.938-102.429
			c3.463-30.039-2.074-80.446-0.948-111.433c1.125-30.984,6.534-15.168,2.448-37.124
			C502.614,141.294,497.874,107.225,497.874,107.225z"/>
	</g>
	<g>
		<path style="fill:none;stroke:#000000;stroke-width:5;stroke-linecap:round;stroke-linejoin:round;stroke-miterlimit:10;" d="
			M497.874,107.225c0,0-40.779-8.699-65.062,12.462c-46.485,40.51-47.286,34.018-109.064,71.821
			c-61.777,37.805-89.599,14.426-96.059-12.336s28.946-89.144,8.46-137.071c-9.014-28.072-66.286-57.023-124-26.667
			C54.435,45.789,62.263,115.488,62.263,115.488s14.337,33.152,27.887,52.612c41,17.333,30.667,32.333,31,48.333
			s-3.881,21.104-13.095,52.035c-12.031,40.388-2.696,115.113,20.334,143.975s104.478,37.785,138.893,38.868
			s106.661-28.254,136.064-45.325c29.402-17.071,64.476-72.389,67.938-102.429c3.463-30.039-2.074-80.446-0.948-111.433
			c1.125-30.984,6.534-15.168,2.448-37.124C502.614,141.294,497.874,107.225,497.874,107.225z"/>
	</g>
</g>
<g id="beak">
	<g>
		<path style="fill-rule:evenodd;clip-rule:evenodd;fill:#010202;" d="M94.149,107.684c-8.222-0.793-18.575-2.528-26.5-5.5
			c-5.918-1.89-9.122-0.072-13.389,13.598c-4.266,13.67-23.663,32.167-51.598,66.045c-13.67,15.453,28.614,39.153,51.236,22.357
			c31.194-20.473,78.363-38.404,85.249-64.033C103.59,130.689,114.806,108.554,94.149,107.684z"/>
	</g>
</g>
<g id="eye" style="opacity:0.7098;">
	<g>
		
			<ellipse transform="matrix(-0.9876 -0.157 0.157 -0.9876 327.4539 193.9936)" style="fill-rule:evenodd;clip-rule:evenodd;fill:#010202;" cx="171.388" cy="84.065" rx="11.281" ry="12.352"/>
	</g>
</g>
</svg>
