<?xml version="1.0" encoding="utf-8"?>
<!-- Generator: Adobe Illustrator 15.0.0, SVG Export Plug-In . SVG Version: 6.00 Build 0)  -->
<!DOCTYPE svg PUBLIC "-//W3C//DTD SVG 1.1//EN" "http://www.w3.org/Graphics/SVG/1.1/DTD/svg11.dtd">
<svg version="1.1" id="Symbol" xmlns="http://www.w3.org/2000/svg" xmlns:xlink="http://www.w3.org/1999/xlink" x="0px" y="0px"
	 width="221.616px" height="221.615px" viewBox="0 0 221.616 221.615" enable-background="new 0 0 221.616 221.615"
	 xml:space="preserve">
<path id="Ball" fill-rule="evenodd" clip-rule="evenodd" d="M110.808,0C49.611,0,0,49.61,0,110.808s49.611,110.808,110.808,110.808
	c61.198,0,110.808-49.61,110.808-110.808S172.006,0,110.808,0z M82.347,77.489c-7.546,0-13.663-6.117-13.663-13.663
	c0-7.547,6.117-13.664,13.663-13.664c7.546,0,13.664,6.117,13.664,13.664C96.011,71.372,89.894,77.489,82.347,77.489z
	 M104.826,41.237c0-7.546,6.117-13.663,13.664-13.663c7.546,0,13.663,6.117,13.663,13.663S126.035,54.9,118.489,54.9
	C110.943,54.9,104.826,48.783,104.826,41.237z M127.524,95.561c-7.546,0-13.663-6.117-13.663-13.664
	c0-7.546,6.117-13.663,13.663-13.663s13.664,6.117,13.664,13.663C141.188,89.443,135.07,95.561,127.524,95.561z"/>
</svg>
