<?xml version="1.0" encoding="utf-8"?>
<!-- Generator: Adobe Illustrator 15.0.0, SVG Export Plug-In . SVG Version: 6.00 Build 0)  -->
<!DOCTYPE svg PUBLIC "-//W3C//DTD SVG 1.1//EN" "http://www.w3.org/Graphics/SVG/1.1/DTD/svg11.dtd">
<svg version="1.1" id="Symbol" xmlns="http://www.w3.org/2000/svg" xmlns:xlink="http://www.w3.org/1999/xlink" x="0px" y="0px"
	 width="448.422px" height="462.812px" viewBox="0 0 448.422 462.812" enable-background="new 0 0 448.422 462.812"
	 xml:space="preserve">
<g id="Pins">
	<defs>
		<path id="Mask_x5F_Contur_x5F_Ball" d="M0,0v462.812h448.422V0H0z M165.442,441.846c-76.593,0-138.684-62.091-138.684-138.684
			S88.85,164.479,165.442,164.479s138.684,62.091,138.684,138.684S242.035,441.846,165.442,441.846z"/>
	</defs>
	<clipPath id="Mask_x5F_Contur_x5F_Ball_1_">
		<use xlink:href="#Mask_x5F_Contur_x5F_Ball"  overflow="visible"/>
	</clipPath>
	<path id="Pin3_x5F_Bottom" clip-path="url(#Mask_x5F_Contur_x5F_Ball_1_)" fill-rule="evenodd" clip-rule="evenodd" d="
		M361.745,330.549c-35.864,61.659-84.152,72.998-84.152,72.998l-42.857-24.929c0,0-14.01-47.574,21.854-109.233
		c40.625-69.844,70.336-48.547,94.629-84.485l37.179,21.625C369.168,245.408,402.369,260.705,361.745,330.549z"/>
	<path id="Pin3_x5F_Mid" clip-path="url(#Mask_x5F_Contur_x5F_Ball_1_)" fill-rule="evenodd" clip-rule="evenodd" d="
		M368.088,152.891c-1.954,5.031-5.073,11.566-10.014,20.459l36.938,21.483c5.242-8.716,9.366-14.669,12.754-18.864
		c0-0.001,0.002-0.002,0.002-0.003l-39.678-23.078C368.09,152.888,368.089,152.89,368.088,152.891z"/>
	<path id="Pin3_x5F_Head" clip-path="url(#Mask_x5F_Contur_x5F_Ball_1_)" fill-rule="evenodd" clip-rule="evenodd" d="
		M441.822,140.353c-12.893,22.163-17.377,21.995-23.895,26.082l-46.575-27.088c0.364-7.668-1.926-11.43,10.972-33.602
		c16.837-28.949,34.488-16.691,45.727-10.157C439.287,102.125,458.658,111.402,441.822,140.353z"/>
	<path id="Pin2_x5F_Bottom" clip-path="url(#Mask_x5F_Contur_x5F_Ball_1_)" fill-rule="evenodd" clip-rule="evenodd" d="
		M246.518,246.207c-14.841,69.77-57.184,95.604-57.184,95.604l-48.495-10.316c0,0-28.15-40.831-13.309-110.6
		c16.812-79.031,51.684-68.065,63.554-109.788l42.069,8.949C227.014,162.999,263.33,167.176,246.518,246.207z"/>
	<path id="Pin2_x5F_Mid" clip-path="url(#Mask_x5F_Contur_x5F_Ball_1_)" fill-rule="evenodd" clip-rule="evenodd" d="
		M197.129,75.434c-0.287,5.389-1.212,12.572-3.133,22.562l41.795,8.891c2.262-9.916,4.323-16.859,6.233-21.901
		c0,0,0.001-0.003,0.001-0.004L197.13,75.43C197.13,75.431,197.13,75.433,197.129,75.434z"/>
	<path id="Pin2_x5F_Head" clip-path="url(#Mask_x5F_Contur_x5F_Ball_1_)" fill-rule="evenodd" clip-rule="evenodd" d="
		M263.271,40.522c-5.334,25.078-9.648,26.318-14.565,32.233l-52.701-11.209c-2.045-7.399-5.394-10.258-0.057-35.347
		c6.968-32.756,27.561-26.617,40.277-23.914C248.94,4.993,270.24,7.765,263.271,40.522z"/>
	<path id="Pin1_x5F_Bottom" clip-path="url(#Mask_x5F_Contur_x5F_Ball_1_)" fill-rule="evenodd" clip-rule="evenodd" d="
		M121.65,293.14c0,71.33-36.04,105.41-36.04,105.41H36.03c0,0-36.03-34.08-36.03-105.41c0-80.8,36.39-77.33,39.32-120.609h43.01
		C85.26,215.81,121.65,212.34,121.65,293.14z"/>
	<path id="Pin1_x5F_Mid" clip-path="url(#Mask_x5F_Contur_x5F_Ball_1_)" fill-rule="evenodd" clip-rule="evenodd" d="M37.81,136.38
		c0.84,5.33,1.43,12.55,1.63,22.72h42.73c0.15-10.17,0.72-17.39,1.54-22.72c0,0,0-0.003,0-0.004H37.81
		C37.81,136.377,37.81,136.379,37.81,136.38z"/>
	<path id="Pin1_x5F_Head" clip-path="url(#Mask_x5F_Contur_x5F_Ball_1_)" fill-rule="evenodd" clip-rule="evenodd" d="M95.24,88.47
		c0-33.489-21.41-31.77-34.41-31.77s-34.42-1.72-34.42,31.77c0,25.65,3.87,27.75,7.41,34.561H87.7
		C91.28,116.22,95.24,114.11,95.24,88.47z"/>
</g>
<path id="Ball" fill-rule="evenodd" clip-rule="evenodd" d="M165.864,192.771c-61.197,0-110.808,49.61-110.808,110.808
	s49.611,110.808,110.808,110.808c61.198,0,110.808-49.61,110.808-110.808S227.062,192.771,165.864,192.771z M137.403,270.26
	c-7.546,0-13.663-6.117-13.663-13.663c0-7.547,6.117-13.664,13.663-13.664c7.546,0,13.664,6.117,13.664,13.664
	C151.066,264.143,144.949,270.26,137.403,270.26z M159.881,234.008c0-7.546,6.117-13.663,13.664-13.663
	c7.546,0,13.663,6.117,13.663,13.663s-6.117,13.663-13.663,13.663C165.999,247.671,159.881,241.554,159.881,234.008z
	 M182.58,288.331c-7.546,0-13.663-6.117-13.663-13.664c0-7.546,6.117-13.663,13.663-13.663s13.664,6.117,13.664,13.663
	C196.244,282.214,190.126,288.331,182.58,288.331z"/>
</svg>
