<?xml version="1.0" encoding="utf-8"?>
<!-- Generator: Adobe Illustrator 15.0.0, SVG Export Plug-In . SVG Version: 6.00 Build 0)  -->
<!DOCTYPE svg PUBLIC "-//W3C//DTD SVG 1.1//EN" "http://www.w3.org/Graphics/SVG/1.1/DTD/svg11.dtd">
<svg version="1.1" id="Symbol" xmlns="http://www.w3.org/2000/svg" xmlns:xlink="http://www.w3.org/1999/xlink" x="0px" y="0px"
	 width="121.65px" height="341.864px" viewBox="0 0 121.65 341.864" enable-background="new 0 0 121.65 341.864"
	 xml:space="preserve">
<path id="Pin_x5F_Bottom" fill-rule="evenodd" clip-rule="evenodd" d="M121.65,236.454c0,71.33-36.04,105.41-36.04,105.41H36.03
	c0,0-36.03-34.08-36.03-105.41c0-80.8,36.39-77.33,39.32-120.609h43.01C85.26,159.124,121.65,155.654,121.65,236.454z"/>
<path id="Pin_x5F_Mid" fill-rule="evenodd" clip-rule="evenodd" d="M37.81,79.694c0.84,5.33,1.43,12.55,1.63,22.72h42.73
	c0.15-10.17,0.72-17.39,1.54-22.72c0,0,0-0.003,0-0.004H37.81C37.81,79.691,37.81,79.693,37.81,79.694z"/>
<path id="Pin_x5F_Head" fill-rule="evenodd" clip-rule="evenodd" d="M95.24,31.784c0-33.489-21.41-31.77-34.41-31.77
	s-34.42-1.72-34.42,31.77c0,25.65,3.87,27.75,7.41,34.561H87.7C91.28,59.534,95.24,57.425,95.24,31.784z"/>
</svg>
