<?xml version="1.0" encoding="utf-8"?>
<!-- Generator: Adobe Illustrator 15.0.0, SVG Export Plug-In . SVG Version: 6.00 Build 0)  -->
<!DOCTYPE svg PUBLIC "-//W3C//DTD SVG 1.1//EN" "http://www.w3.org/Graphics/SVG/1.1/DTD/svg11.dtd">
<svg version="1.1" id="Bunny_1_" xmlns="http://www.w3.org/2000/svg" xmlns:xlink="http://www.w3.org/1999/xlink" x="0px" y="0px"
	 width="72.684px" height="99.926px" viewBox="0 0 72.684 99.926" enable-background="new 0 0 72.684 99.926" xml:space="preserve">
<g id="Body_1_">
	<g id="body">
		<path fill-rule="evenodd" clip-rule="evenodd" fill="#FFFFFF" d="M57.691,99.675c-0.261,0-0.528-0.012-0.801-0.039
			c-1.485-0.27-4.036-2.4-6.736-4.658c-0.857-0.717-1.73-1.445-2.588-2.133c-2.953-1.979-5.922-3.688-7.887-4.82
			c-0.767-0.441-1.367-0.787-1.736-1.018c-1.208-1.102-1.821-2.318-1.86-3.646c-0.041-1.395,0.551-2.684,1.231-3.691
			c-1.329,0.758-2.835,1.162-4.386,1.162c-1.306,0-2.543-0.299-3.263-0.734c0.147,2.045-1.224,4.008-2.634,5.693
			c-0.301,0.359-0.836,0.783-1.515,1.32c-1.082,0.855-2.429,1.92-3.534,3.279c-0.525,0.646-1.029,1.355-1.516,2.043
			c-1.483,2.088-3.018,4.25-5.402,4.984c-1.372,0.613-2.83,0.93-4.306,0.93c-3.079,0-5.822-1.422-6.67-3.461
			c-0.535-1.285-0.212-2.613,0.91-3.742c2.218-1.287,3.972-2.838,5.668-4.336c1.501-1.326,3.044-2.689,4.89-3.865
			c-0.106,0.008-0.212,0.012-0.317,0.012c-4.853,0-8.112-7.152-8.112-13.83c0-3.42,0.854-6.508,2.405-8.695
			c1.828-2.578,4.62-3.941,8.073-3.941c0.109,0,0.22,0.002,0.332,0.004c-0.175-3.025,1.226-8.422,3.98-10.514
			c2.021-0.635,7.856-1.271,13.444-1.271c4.173,0,9.631,0.344,11.942,1.988l0.045,0.031l0.027,0.049
			c1.684,2.912,3.301,6.527,2.64,11.334c0.875-0.199,1.704-0.301,2.47-0.301c3.17,0,5.354,1.73,6.146,4.869
			c1.433,5.676-1.982,14.721-8.696,18.475c0.679,1.453,3.854,2.961,6.928,4.422c3.256,1.547,6.331,3.008,7.114,4.6
			c1.093,1.48,1.168,3.646,0.172,5.613C62.933,98.185,60.459,99.675,57.691,99.675C57.691,99.675,57.692,99.675,57.691,99.675z"/>
		<path d="M35.36,44.956c4.929,0,9.756,0.49,11.798,1.943c1.716,2.967,3.337,6.65,2.555,11.539c1.016-0.26,1.938-0.381,2.771-0.381
			c10.035,0,7.068,17.627-2.863,22.98c0.992,3.141,12.598,6.131,14.13,9.244c2.39,3.254-0.495,9.143-6.06,9.143
			c-0.253,0-0.513-0.012-0.777-0.037c-1.848-0.336-5.652-3.904-9.191-6.738c-4.148-2.781-8.346-5.045-9.647-5.855
			c-3.538-3.242-0.838-6.922,0.637-8.443c0.152-0.137,0.303-0.283,0.45-0.436c-0.126,0.113-0.28,0.26-0.45,0.436
			c-1.857,1.682-4.006,2.23-5.783,2.23c-1.949,0-3.453-0.66-3.637-1.207c-0.003-0.012-0.007-0.025-0.011-0.037
			c0.003,0.012,0.006,0.025,0.011,0.037c0.641,2.309-1.111,4.654-2.452,6.256c-0.746,0.893-3.239,2.371-5.051,4.602
			c-2.12,2.609-3.726,6-6.798,6.947c-1.441,0.643-2.886,0.918-4.232,0.918c-4.967,0-8.574-3.766-5.583-6.777
			c4.561-2.623,7.152-6.439,11.883-8.965c-0.626,0.238-1.233,0.35-1.82,0.35c-8.938,0-12.793-25.971,2.366-25.967
			c0.197,0,0.399,0.004,0.602,0.014c-0.262-2.721,1.044-8.436,3.861-10.574C23.96,45.597,29.727,44.956,35.36,44.956 M35.36,44.456
			c-5.611,0-11.479,0.643-13.439,1.242l-0.085,0.025l-0.071,0.055c-2.74,2.08-4.173,7.332-4.09,10.459c-0.023,0-0.047,0-0.071,0
			c0,0-0.002,0-0.002,0c-3.92,0-6.971,1.695-8.823,4.902c-3.054,5.287-2.122,13.225,0.544,17.844
			c1.456,2.521,3.366,3.992,5.423,4.195c-1.567,1.076-2.922,2.273-4.245,3.441c-1.687,1.49-3.431,3.033-5.575,4.266l-0.058,0.033
			l-0.047,0.047c-1.197,1.207-1.539,2.633-0.962,4.016c0.886,2.129,3.724,3.615,6.901,3.615c1.501,0,2.985-0.318,4.408-0.949
			c2.449-0.77,4.002-2.955,5.503-5.07c0.485-0.684,0.986-1.389,1.507-2.029c1.087-1.34,2.422-2.395,3.495-3.242
			c0.689-0.545,1.234-0.975,1.551-1.354c1.351-1.615,2.664-3.48,2.708-5.443c0.771,0.352,1.851,0.572,2.998,0.572
			c1.295,0,2.559-0.273,3.719-0.793c-0.49,0.904-0.848,1.955-0.814,3.08c0.041,1.398,0.682,2.674,1.904,3.795l0.034,0.031
			l0.039,0.025c0.375,0.232,0.979,0.58,1.745,1.021c1.962,1.131,4.926,2.838,7.889,4.824c0.82,0.66,1.699,1.395,2.55,2.104
			c2.845,2.379,5.302,4.432,6.83,4.711c0.318,0.031,0.596,0.045,0.867,0.045c2.863,0,5.422-1.543,6.679-4.025
			c1.031-2.037,0.957-4.285-0.191-5.879c-0.852-1.652-3.94-3.119-7.21-4.674c-2.759-1.311-5.854-2.781-6.697-4.1
			c6.666-3.881,10.04-12.93,8.601-18.631c-0.823-3.262-3.092-5.059-6.388-5.059c-0.682,0-1.411,0.078-2.177,0.232
			c0.548-4.705-1.053-8.264-2.717-11.143l-0.054-0.094l-0.089-0.062C45.082,44.81,39.569,44.456,35.36,44.456L35.36,44.456z"/>
	</g>
	<g id="Inner_1_">
		<g id="leg_x5F_right">
			<g id="Form_40">
				<g>
					<path fill-rule="evenodd" clip-rule="evenodd" d="M59.392,94.827c-0.043-0.057-0.204,0.033-0.258,0.086
						c2.009,0.412,1.682,3.342,0.286,4.363c0.107,0.047,0.254,0.018,0.396-0.037C61.586,97.976,61.396,94.729,59.392,94.827z"/>
				</g>
			</g>
			<g id="Form_40_Kopie">
				<g>
					<path fill-rule="evenodd" clip-rule="evenodd" d="M62.602,92.933c-0.042-0.055-0.181,0.057-0.234,0.109
						c1.895,0.387,0.75,4.066,0.392,4.33c0.107,0.047,0.254,0.018,0.396-0.037C63.685,96.956,64.684,92.833,62.602,92.933z"/>
				</g>
			</g>
		</g>
		<g id="leg_x5F_left">
			<g id="Form_40_Kopie_2">
				<g>
					<path fill-rule="evenodd" clip-rule="evenodd" d="M10.285,94.085c-0.053-0.053-0.214-0.143-0.257-0.088
						c-2.006,0.281-2.933,3.279-0.905,4.172c0.143,0.055,0.289,0.086,0.397,0.039C7.884,97.136,8.037,95.005,10.285,94.085z"/>
				</g>
			</g>
			<g id="Form_40_Kopie_3">
				<g>
					<path fill-rule="evenodd" clip-rule="evenodd" d="M7.031,92.917c-0.053-0.053-0.192-0.164-0.234-0.109
						c-1.878,0.062-1.562,3.783-1.033,4.162c0.143,0.055,0.289,0.084,0.396,0.037C5.801,96.745,5.137,93.304,7.031,92.917z"/>
				</g>
			</g>
		</g>
		<g id="arm_x5F_left">
			<g>
				<path fill-rule="evenodd" clip-rule="evenodd" fill="#FFFFFF" d="M23.515,72.687c-0.081,0-0.162-0.004-0.244-0.012
					c-4.568-0.289-5.974-7.338-5.787-13.287c0.23-7.316,2.718-15.092,6.875-15.092c0.177,0,0.355,0.016,0.537,0.045
					c2.565,0.416,3.563,11.367,2.983,18.547C27.583,66.548,26.624,72.687,23.515,72.687z"/>
				<path d="M24.358,44.546c0.164,0,0.329,0.014,0.497,0.041c3.535,0.574,4.749,27.85-1.341,27.85c-0.072,0-0.145-0.004-0.218-0.012
					C14.56,71.876,16.987,44.55,24.358,44.546 M24.36,44.046h-0.002c-4.316,0.002-6.892,7.906-7.124,15.342
					c-0.189,6.059,1.277,13.236,6.031,13.537c0.071,0.008,0.161,0.012,0.25,0.012c3.144,0,4.244-5.453,4.614-10.027
					c0.58-7.191-0.397-18.361-3.193-18.816C24.743,44.062,24.549,44.046,24.36,44.046L24.36,44.046z"/>
			</g>
			<g id="Form_39">
				<g>
					<path fill-rule="evenodd" clip-rule="evenodd" d="M24.458,67.72c-0.068-0.086-0.256-0.055-0.259,0.076
						c-0.158,0.863,0.491,2.279,1.25,3.406c0.076,0.074,0.156-0.014,0.226-0.166C24.892,70.048,24.325,68.462,24.458,67.72z"/>
				</g>
			</g>
			<g id="Form_39_Kopie">
				<g>
					<path fill-rule="evenodd" clip-rule="evenodd" d="M21.153,68.667c-0.055-0.066-0.108-0.064-0.177-0.121
						c-0.268,0.609,0.004,2.479,0.424,3.604c0.058,0.088,0.155,0.021,0.258-0.109C21.127,70.896,21.069,69.263,21.153,68.667z"/>
				</g>
			</g>
		</g>
		<g id="arm_x5F_right">
			<g>
				<path fill-rule="evenodd" clip-rule="evenodd" fill="#FFFFFF" d="M42.689,73.552c-0.106,0-0.214-0.004-0.322-0.014
					c-0.665-0.021-1.249-0.318-1.727-0.883c-2.245-2.648-1.529-10.213-1.118-13.342c0.764-5.807,2.855-14.01,5.118-14.064
					c0.001,0,0.003,0,0.004,0c1.05,0,1.919,0.406,2.67,1.205c2.023,2.15,3.101,7.305,2.744,13.133
					C49.632,66.536,47.189,73.552,42.689,73.552L42.689,73.552z"/>
				<path d="M44.725,45.499c3.87,0,5.512,7.064,5.083,14.072c-0.422,6.893-2.846,13.73-7.119,13.73
					c-0.101,0-0.201-0.004-0.304-0.012c-3.184-0.107-3.524-7.033-2.615-13.943c0.908-6.91,3.065-13.803,4.876-13.848
					C44.672,45.499,44.699,45.499,44.725,45.499 M44.725,44.999h-0.091c-2.563,0.062-4.609,8.576-5.36,14.281
					c-0.416,3.162-1.134,10.812,1.175,13.537c0.525,0.619,1.172,0.947,1.92,0.973c0.094,0.006,0.208,0.012,0.32,0.012
					c4.662,0,7.186-7.133,7.618-14.201c0.287-4.689-0.301-10.65-2.811-13.318C46.695,45.431,45.763,44.999,44.725,44.999
					L44.725,44.999z"/>
			</g>
			<g id="Form_39_Kopie_2">
				<g>
					<path fill-rule="evenodd" clip-rule="evenodd" d="M42.209,68.599c-0.093,0.748-1.104,2.094-2.146,2.805
						c0.021,0.166,0.071,0.273,0.167,0.227c1.059-0.852,2.099-2.01,2.204-2.881C42.47,68.622,42.3,68.536,42.209,68.599z"/>
				</g>
			</g>
			<g id="Form_39_Kopie_3">
				<g>
					<path fill-rule="evenodd" clip-rule="evenodd" d="M44.466,70.333c-0.127,0.588-0.743,2.102-1.636,2.992
						c0.051,0.158,0.12,0.256,0.204,0.191c0.781-0.91,1.682-2.572,1.639-3.236C44.589,70.31,44.542,70.288,44.466,70.333z"/>
				</g>
			</g>
		</g>
		<g id="arm_x5F_overlay">
			<g>
				<polygon fill-rule="evenodd" clip-rule="evenodd" fill="#FFFFFF" points="26.022,46.573 24.719,58.771 30.221,58.521 
					38.515,58.224 41.806,58.099 44.364,46.229 				"/>
			</g>
		</g>
	</g>
</g>
<g id="Head_1_">
	<g id="Glasses_x5F_Back_1_" display="none">
		<g id="Form_22" display="inline">
			<g>
				<path fill-rule="evenodd" clip-rule="evenodd" fill="#FFFFFF" d="M4.419,15.909l-0.579,5.691
					c2.545-0.279,10.964,3.391,10.964,3.391l2.709-1.795L4.419,15.909z"/>
			</g>
			<g>
				<path fill="none" stroke="#000000" stroke-width="0.5" stroke-miterlimit="5" d="M4.419,15.909l-0.579,5.691
					c2.545-0.279,10.964,3.391,10.964,3.391l2.709-1.795L4.419,15.909z"/>
			</g>
		</g>
		<g id="Form_23" display="inline">
			<g>
				<polygon fill-rule="evenodd" clip-rule="evenodd" fill="#FFFFFF" points="54.003,25.771 54.297,28.384 65.144,28.524 
					65.795,22.868 				"/>
			</g>
			<g>
				<polygon fill="none" stroke="#000000" stroke-width="0.5" stroke-miterlimit="5" points="54.003,25.771 54.297,28.384 
					65.144,28.524 65.795,22.868 				"/>
			</g>
		</g>
	</g>
	<g id="face">
		<g id="face_1_">
			<path fill-rule="evenodd" clip-rule="evenodd" fill="#FFFFFF" d="M34.919,50.644c-0.417,0-0.83-0.016-1.241-0.047
				c-6.434-0.475-15.022-4.295-18.676-11.564c-2.029-4.035-3.266-10.707,2.36-19.57c0.608-1.051,0.347-2.988-0.64-4.701
				c-1.037-1.799-2.538-2.83-4.119-2.83c-0.015,0-0.03,0-0.044,0.002c-1.725,9.395-4.712,15.818-8.879,19.09l-0.103,0.08
				l-0.125-0.037c-1.693-0.514-3.066-4.754-3.194-9.863C0.161,17.319,0.723,4.329,12.037,0.267c3.255,0.104,6.093,1.385,8.085,3.596
				c2.079,2.305,3.131,5.523,2.986,9.096c4.546-2.141,8.375-3.141,12.019-3.141c3.758,0,7.468,1.025,12.371,3.422
				C52.34,5.56,57.784,1.618,64.134,1.192c5.083,0.422,7.79,6.574,8.234,12.482c0.372,4.955-0.812,10.664-4.292,11.49
				c-4.141-0.033-6.483-6.795-6.663-13.262c-0.17,0.059-0.348,0.119-0.531,0.182c-2.716,0.926-6.814,2.322-7.629,7.641
				c3.409,7.582,3.145,15.076-0.749,21.111c-3.842,5.955-10.743,9.805-17.582,9.807C34.921,50.644,34.92,50.644,34.919,50.644z"/>
			<path d="M12.122,0.501c6.408,0.238,11.22,5.285,10.715,12.863c4.734-2.275,8.616-3.297,12.291-3.297
				c4.108,0,7.959,1.275,12.463,3.496C52.285,6.042,57.724,1.872,64.151,1.442c9.381,0.783,10.382,21.932,3.868,23.48
				c-4.166-0.041-6.269-7.371-6.363-13.373c-2.674,0.98-7.762,2.078-8.66,8.211c8.138,17.986-6.056,30.633-18.073,30.633
				c-0.412,0-0.819-0.016-1.226-0.045C21.451,49.444,6.127,37.626,17.573,19.597c1.323-2.287-1.141-7.914-4.97-7.916
				c-0.084,0-0.169,0.004-0.254,0.01c-1.118,6.178-3.419,14.893-8.824,19.137C-0.22,29.69-3.238,6.017,12.122,0.501 M12.043-0.001
				L11.953,0.03C0.48,4.149-0.09,17.282,0.008,21.21c0.114,4.543,1.309,9.469,3.372,10.096l0.249,0.074l0.205-0.16
				c4.186-3.287,7.19-9.689,8.933-19.033c1.412,0.07,2.799,1.068,3.74,2.699c0.93,1.613,1.197,3.488,0.635,4.459
				c-5.678,8.945-4.419,15.707-2.361,19.801c3.697,7.355,12.378,11.221,18.88,11.701c0.414,0.031,0.839,0.047,1.263,0.047
				c6.921,0,13.904-3.895,17.791-9.92c3.93-6.09,4.212-13.645,0.799-21.283c0.814-5.107,4.646-6.414,7.451-7.369
				c0.071-0.023,0.143-0.049,0.212-0.072c0.228,5.516,2.165,13.127,6.839,13.174h0.062l0.059-0.014
				c3.623-0.861,4.863-6.697,4.483-11.752c-0.452-6.016-3.233-12.279-8.425-12.713L64.155,0.94l-0.037,0.002
				C57.734,1.37,52.264,5.29,47.407,12.917c-4.841-2.346-8.533-3.35-12.279-3.35c-3.583,0-7.337,0.953-11.758,2.994
				c0.055-3.477-1.018-6.6-3.061-8.867c-2.038-2.262-4.939-3.572-8.168-3.691L12.043-0.001L12.043-0.001z"/>
		</g>
		<g id="Features_1_">
			<g id="whiskers_1_">
				<g id="whiskers_x5F_right_1_">
					<g id="Form_36_3_">
						<g>
							<path fill-rule="evenodd" clip-rule="evenodd" d="M63.09,33.271c-6.172-0.158-14.229,1.846-15.579,2.662
								c-0.084,0.105-0.08,0.232,0.041,0.236c1.908-0.979,13.019-2.918,15.578-2.662C63.155,33.454,63.209,33.302,63.09,33.271z"/>
						</g>
					</g>
					<g id="Form_36_Kopie_3_">
						<g>
							<path fill-rule="evenodd" clip-rule="evenodd" d="M61.276,43.366c-5.445-2.932-13.386-4.775-14.952-4.605
								c-0.121,0.061-0.17,0.176-0.062,0.23c2.143-0.082,12.635,3.109,14.951,4.605C61.257,43.56,61.372,43.444,61.276,43.366z"/>
						</g>
					</g>
					<g id="Form_36_Kopie_2_3_">
						<g>
							<path fill-rule="evenodd" clip-rule="evenodd" d="M55.256,48.29c-4.212-4.445-9.203-7.211-10.731-7.592
								c-0.135,0.016-0.222,0.107-0.14,0.195c2.039,0.664,9.075,5.387,10.732,7.592C55.172,48.466,55.319,48.397,55.256,48.29z"/>
						</g>
					</g>
				</g>
				<g id="whiskers_x5F_left_1_">
					<g id="Form_36_1_">
						<g>
							<path fill-rule="evenodd" clip-rule="evenodd" fill="#020202" d="M20.09,31.931c-1.119-1.109-6.295-3.004-12.33-4.303
								c-0.124,0.002-0.106,0.164-0.095,0.221c2.548,0.354,10.705,2.902,12.33,4.303C20.113,32.175,20.147,32.054,20.09,31.931z"/>
						</g>
					</g>
					<g id="Form_36_Kopie_1_">
						<g>
							<path fill-rule="evenodd" clip-rule="evenodd" d="M20.283,35.407c-1.957-0.584-8.188-1.74-12.834-2.098
								c-0.111,0.055-0.027,0.193,0.007,0.24c3.135,0.395,10.771,1.514,12.834,2.098C20.407,35.62,20.386,35.495,20.283,35.407z"/>
						</g>
					</g>
					<g id="Form_36_Kopie_2_1_">
						<g>
							<path fill-rule="evenodd" clip-rule="evenodd" d="M21.223,38.64c-1.666,0.33-4.375,0.494-8.836,2.838
								c-0.085,0.088,0.041,0.189,0.089,0.223c3.171-1.709,6.936-2.543,8.836-2.838C21.413,38.796,21.35,38.687,21.223,38.64z"/>
						</g>
					</g>
				</g>
			</g>
		</g>
		<g id="Eyes_1_">
			<g id="Form_15_1_">
				<g>
					<circle fill-rule="evenodd" clip-rule="evenodd" cx="24.799" cy="27.051" r="3.464"/>
				</g>
			</g>
			<g id="Form_15_Kopie_1_">
				<g>
					<circle fill-rule="evenodd" clip-rule="evenodd" cx="43.759" cy="29.45" r="3.463"/>
				</g>
			</g>
		</g>
		<g id="Nose_x5F_Mouth_1_">
			<g id="teath_1_">
				<g id="Form_34">
					<g>
						<path fill-rule="evenodd" clip-rule="evenodd" d="M33.233,34.479c0,0.49-0.205,2.65-0.514,5.07
							c0.139,0,0.344-0.016,0.479-0.016c0.188-1.049,0.553-4.512,0.553-5.057C33.575,34.478,33.433,34.479,33.233,34.479z"/>
					</g>
				</g>
				<g id="Form_35">
					<g>
						<path fill-rule="evenodd" clip-rule="evenodd" d="M30.651,38.944c0,0.186-0.069,0.25-0.092,0.365
							c0.69,0.279,1.879,0.74,4.691,0.467c-0.022-0.088,0.042-0.168,0.042-0.271C32.507,39.597,31.449,39.423,30.651,38.944z"/>
					</g>
				</g>
				<g id="Form_34_Kopie">
					<g>
						<path fill-rule="evenodd" clip-rule="evenodd" d="M31.287,35.894c0,0.49-0.131,1.061-0.728,3.416
							c0.138,0,0.237-0.012,0.372-0.012c0.297-1.074,0.731-3.033,0.731-3.578C31.486,35.72,31.487,35.894,31.287,35.894z"/>
					</g>
				</g>
				<g id="Form_34_Kopie_2">
					<g>
						<path fill-rule="evenodd" clip-rule="evenodd" d="M35.479,36.425c0,0.49-0.003,1.01-0.601,3.363
							c0.139,0,0.238-0.012,0.372-0.012c0.298-1.074,0.575-2.809,0.575-3.354C35.65,36.423,35.679,36.425,35.479,36.425z"/>
					</g>
				</g>
			</g>
			<g id="Form_16_2_">
				<g>
					<path fill-rule="evenodd" clip-rule="evenodd" d="M34.13,29.886c0,0-2.576,2.459-1.764,3.189
						c0.806,0.725,2.397,1.027,2.849-0.008C35.647,32.079,34.13,29.886,34.13,29.886z"/>
				</g>
			</g>
			<g id="Form_17_2_">
				<g>
					<path fill-rule="evenodd" clip-rule="evenodd" d="M31.257,35.772c-3.361,0.521-3.006-2.23-3.006-2.23s-0.636,2.426,1.601,2.742
						c2.237,0.314,4.076-1.342,3.846-2.918S34.002,35.3,31.257,35.772z"/>
				</g>
			</g>
			<g id="Form_17_Kopie_2_">
				<g>
					<path fill-rule="evenodd" clip-rule="evenodd" d="M38.851,34.649c0,0-0.172,2.77-3.374,1.623
						c-2.606-0.982-1.416-4.328-1.94-2.824s0.968,3.479,3.224,3.592C39.017,37.151,38.851,34.649,38.851,34.649z"/>
				</g>
			</g>
		</g>
	</g>
	<g id="Glasses_1_" display="none">
		<g id="Form_24" display="inline">
			<g>
				<rect x="4.47" y="17.692" fill-rule="evenodd" clip-rule="evenodd" fill="#FFFFFF" width="3.84" height="2.641"/>
			</g>
		</g>
		<g id="Form_25" display="inline">
			<g>
				<rect x="61.35" y="23.454" fill-rule="evenodd" clip-rule="evenodd" fill="#FFFFFF" width="4.08" height="4.08"/>
			</g>
		</g>
		<g id="Form_19" display="inline">
			<g>
				<path fill-rule="evenodd" clip-rule="evenodd" fill="#FFFFFF" d="M51.765,19.983c-5.76-0.641-14.41,0.471-16.53,0.24
					c-2.12-0.24-10.31-3.25-16.07-3.891c-5.76-0.639-10.74-0.289-14.76-0.58c-0.21,1.85-0.27,3.301-0.55,5.881
					c0.93,0.129,2.28,1.08,2.09,2.66s-2.68,11.689,11.76,13.299c14.44,1.611,11.32-12.369,16.9-11.74
					c5.58,0.611-0.54,13.592,13.9,15.201c14.439,1.6,14.24-8.801,14.399-10.391c0.16-1.58,1.681-2.209,2.63-2.141
					c0.29-2.568,0.54-4,0.75-5.85C62.295,22.073,57.525,20.634,51.765,19.983z M4.975,18.888c0.078-0.699,2.8-0.502,2.708,0.316
					C7.597,19.976,4.896,19.587,4.975,18.888z M16.826,35.438c-6.026-1.416-9.73-3.506-7.858-15.121
					c2.501-3.686,19.265-1.953,21.318,2.777C29.099,34.144,21.678,36.415,16.826,35.438z M49.836,39.14
					c-4.947-0.115-11.687-3.965-10.412-15.004c3.044-4.162,19.778-2.16,21.407,1.984C60.099,37.864,56.026,39.085,49.836,39.14z
					 M62.33,25.317c0.091-0.818,2.79-0.412,2.712,0.287C64.963,26.306,62.244,26.089,62.33,25.317z"/>
			</g>
			<g>
				<path fill="none" stroke="#000000" stroke-width="0.5" stroke-miterlimit="5" d="M51.765,19.983
					c-5.76-0.641-14.41,0.471-16.53,0.24c-2.12-0.24-10.31-3.25-16.07-3.891c-5.76-0.639-10.74-0.289-14.76-0.58
					c-0.21,1.85-0.27,3.301-0.55,5.881c0.93,0.129,2.28,1.08,2.09,2.66s-2.68,11.689,11.76,13.299
					c14.44,1.611,11.32-12.369,16.9-11.74c5.58,0.611-0.54,13.592,13.9,15.201c14.439,1.6,14.24-8.801,14.399-10.391
					c0.16-1.58,1.681-2.209,2.63-2.141c0.29-2.568,0.54-4,0.75-5.85C62.295,22.073,57.525,20.634,51.765,19.983z M4.975,18.888
					c0.078-0.699,2.8-0.502,2.708,0.316C7.597,19.976,4.896,19.587,4.975,18.888z M16.826,35.438
					c-6.026-1.416-9.73-3.506-7.858-15.121c2.501-3.686,19.265-1.953,21.318,2.777C29.099,34.144,21.678,36.415,16.826,35.438z
					 M49.836,39.14c-4.947-0.115-11.687-3.965-10.412-15.004c3.044-4.162,19.778-2.16,21.407,1.984
					C60.099,37.864,56.026,39.085,49.836,39.14z M62.33,25.317c0.091-0.818,2.79-0.412,2.712,0.287
					C64.963,26.306,62.244,26.089,62.33,25.317z"/>
			</g>
		</g>
	</g>
	<g id="face_x5F_overlay">
		<g id="Left_x5F_Ear_1_">
			<g>
				<path fill-rule="evenodd" clip-rule="evenodd" fill="#FFFFFF" d="M3.452,31.065c-1.693-0.514-3.066-4.754-3.194-9.863
					C0.161,17.319,0.723,4.329,12.037,0.267l0.329,0.182c2.008,9.182-1.062,23.992-8.677,30.568L3.452,31.065z"/>
				<path d="M12.122,0.501c2.099,9.598-1.37,24.086-8.597,30.326C-0.22,29.69-3.238,6.017,12.122,0.501 M11.953,0.03
					C0.48,4.149-0.09,17.282,0.008,21.21c0.114,4.543,1.309,9.469,3.372,10.096l0.472-0.102c7.682-6.631,10.781-21.559,8.758-30.809
					L11.953,0.03L11.953,0.03z"/>
			</g>
			<g>
				<path fill-rule="evenodd" clip-rule="evenodd" fill="#FFFFFF" d="M68.016,25.173c-2.438-0.025-4.322-1.922-5.451-5.484
					C60.592,13.456,61.4,3.11,64.005,1.239l0.074-0.055l0.092,0.008c5.046,0.422,7.753,6.574,8.197,12.482
					c0.372,4.955-0.812,10.664-4.292,11.49l-0.029,0.008H68.016z"/>
				<path d="M64.151,1.442c9.381,0.783,10.382,21.932,3.868,23.48C60.094,24.845,60.685,3.933,64.151,1.442 M64.009,0.929
					l-0.15,0.107c-2.67,1.918-3.528,12.42-1.532,18.727c1.164,3.678,3.131,5.635,5.688,5.66h0.062l0.059-0.014
					c3.623-0.861,4.863-6.697,4.483-11.752c-0.452-6.016-3.233-12.279-8.425-12.713L64.009,0.929L64.009,0.929z"/>
			</g>
			<g id="Background_Kopie_5_1_">
				<g>
					<path fill-rule="evenodd" clip-rule="evenodd" fill="#FFFFFF" d="M16.969,1.741c-1.443-0.744-3.085-1.174-4.847-1.24
						C8.43,1.827,5.8,4.202,3.986,7.06c1.654,1.836,3.201,2.227,8.499,1.562c0.078-0.047,0.849-0.041,0.921-0.055
						C18.461,7.362,17.007,4.647,16.969,1.741z"/>
				</g>
			</g>
			<g id="Background_Kopie_8_1_">
				<g>
					<path fill-rule="evenodd" clip-rule="evenodd" fill="#FFFFFF" d="M64.151,1.442c-3.073,0.205-5.922,1.268-8.57,3.141
						c1.843,2.178-0.912,4.639,5.77,3.359c0.12-0.051,0.763-0.096,0.71-0.016C62.993,11.597,74.812,9.745,64.151,1.442z"/>
				</g>
			</g>
		</g>
	</g>
</g>
</svg>
