<?xml version="1.0" encoding="utf-8"?>
<!-- Generator: Adobe Illustrator 15.0.0, SVG Export Plug-In . SVG Version: 6.00 Build 0)  -->
<!DOCTYPE svg PUBLIC "-//W3C//DTD SVG 1.1//EN" "http://www.w3.org/Graphics/SVG/1.1/DTD/svg11.dtd">
<svg version="1.1" xmlns="http://www.w3.org/2000/svg" xmlns:xlink="http://www.w3.org/1999/xlink" x="0px" y="0px"
	 width="98.869px" height="105.68px" viewBox="0 0 98.869 105.68" enable-background="new 0 0 98.869 105.68" xml:space="preserve">
<g id="Ground_2_">
	<g id="Ground_3_">
		<g>
			<ellipse fill-rule="evenodd" clip-rule="evenodd" fill="#7EBAC2" cx="49.435" cy="90.859" rx="49.435" ry="14.82"/>
		</g>
	</g>
	<g id="Eggs_1_">
		<g id="egg">
			<g>
				<defs>
					<rect id="SVGID_1_" x="67.886" y="74.809" width="18.421" height="15.99"/>
				</defs>
				<clipPath id="SVGID_2_">
					<use xlink:href="#SVGID_1_"  overflow="visible"/>
				</clipPath>
				<g clip-path="url(#SVGID_2_)">
					<defs>
						<rect id="SVGID_3_" x="67.886" y="74.809" width="18.421" height="15.99"/>
					</defs>
					<clipPath id="SVGID_4_">
						<use xlink:href="#SVGID_3_"  overflow="visible"/>
					</clipPath>
					<path clip-path="url(#SVGID_4_)" fill-rule="evenodd" clip-rule="evenodd" fill="#F48EC5" d="M79.981,90.549
						c-2.141,0-4.46-0.733-6.53-2.064c-2.171-1.396-3.841-3.292-4.701-5.339c-0.873-2.079-0.812-4.067,0.173-5.6
						c1.016-1.581,2.948-2.487,5.301-2.487c2.141,0,4.46,0.733,6.53,2.064c4.51,2.899,6.541,7.807,4.528,10.938
						C84.267,89.643,82.335,90.549,79.981,90.549"/>
					<path clip-path="url(#SVGID_4_)" fill="#CB609A" d="M74.225,75.309c2.014,0,4.289,0.671,6.396,2.024
						c4.401,2.83,6.394,7.572,4.452,10.594c-1.013,1.575-2.897,2.372-5.091,2.372c-2.014,0-4.289-0.671-6.396-2.024
						c-4.401-2.83-6.394-7.573-4.452-10.594C70.146,76.105,72.031,75.309,74.225,75.309 M74.226,74.809L74.226,74.809
						c-2.44,0-4.45,0.948-5.513,2.602c-1.031,1.604-1.099,3.675-0.193,5.833c0.88,2.093,2.583,4.029,4.796,5.452
						c2.11,1.356,4.477,2.104,6.666,2.104c2.439,0,4.448-0.948,5.512-2.602c2.087-3.248,0.023-8.311-4.603-11.284
						C78.781,75.556,76.414,74.809,74.226,74.809"/>
					<path clip-path="url(#SVGID_4_)" fill-rule="evenodd" clip-rule="evenodd" fill="#D67DAD" d="M84.709,81.519
						c3.107,10.359-15.796,6.872-15.575-3.838c-1.943,3.021,0.051,7.764,4.452,10.594c4.401,2.829,9.544,2.674,11.486-0.348
						C86.22,86.142,85.994,83.757,84.709,81.519"/>
				</g>
			</g>
		</g>
		<g id="egg_x5F_h_1_">
			<g>
				<defs>
					<rect id="SVGID_5_" x="11.3" y="67.491" width="14.075" height="19.053"/>
				</defs>
				<clipPath id="SVGID_6_">
					<use xlink:href="#SVGID_5_"  overflow="visible"/>
				</clipPath>
				<g clip-path="url(#SVGID_6_)">
					<defs>
						<rect id="SVGID_7_" x="11.3" y="67.491" width="14.075" height="19.053"/>
					</defs>
					<clipPath id="SVGID_8_">
						<use xlink:href="#SVGID_7_"  overflow="visible"/>
					</clipPath>
					<path clip-path="url(#SVGID_8_)" fill-rule="evenodd" clip-rule="evenodd" fill="#F48EC5" d="M21.001,67.925
						c3.446,1.01,5.049,5.9,3.577,10.922c-1.471,5.021-5.457,8.273-8.904,7.265c-3.446-1.011-5.049-5.899-3.577-10.921
						C13.567,70.169,17.555,66.917,21.001,67.925"/>
					
						<ellipse transform="matrix(0.2811 -0.9597 0.9597 0.2811 -60.7298 72.9658)" clip-path="url(#SVGID_8_)" fill="none" stroke="#CB609A" stroke-width="0.5" stroke-miterlimit="5" cx="18.337" cy="77.018" rx="9.475" ry="6.503"/>
					<path clip-path="url(#SVGID_8_)" fill="#D67DAD" d="M23.271,69.804c4.989,14.444-14.222,21.119-10.223,3.547
						c-0.275,0.595-0.542,1.225-0.733,1.882c-1.421,4.896,0.126,9.663,3.452,10.651c3.327,0.987,7.174-2.185,8.592-7.079
						C25.379,75.282,24.871,71.832,23.271,69.804"/>
				</g>
			</g>
		</g>
		<g id="egg_x5F_h">
			<g>
				<defs>
					<rect id="SVGID_9_" x="0.405" y="76.518" width="19.948" height="14.008"/>
				</defs>
				<clipPath id="SVGID_10_">
					<use xlink:href="#SVGID_9_"  overflow="visible"/>
				</clipPath>
				<g clip-path="url(#SVGID_10_)">
					<defs>
						<rect id="SVGID_11_" x="0.405" y="76.518" width="19.948" height="14.008"/>
					</defs>
					<clipPath id="SVGID_12_">
						<use xlink:href="#SVGID_11_"  overflow="visible"/>
					</clipPath>
					<path clip-path="url(#SVGID_12_)" fill-rule="evenodd" clip-rule="evenodd" fill="#F48EC5" d="M10.296,90.274
						c-2.581-0.032-5.001-0.754-6.817-2.032c-1.843-1.299-2.846-3.018-2.824-4.84c0.046-3.658,4.366-6.635,9.63-6.635l0.177,0.001
						c5.361,0.066,9.686,3.148,9.64,6.872c-0.045,3.658-4.365,6.635-9.63,6.635L10.296,90.274z"/>
					<path clip-path="url(#SVGID_12_)" fill="#CB609A" d="M10.286,77.018c0.058,0,0.115,0,0.173,0.001
						c5.233,0.064,9.438,3.027,9.394,6.619c-0.044,3.552-4.228,6.388-9.38,6.388c-0.058,0-0.115,0-0.173-0.001
						c-5.233-0.064-9.438-3.027-9.394-6.619C0.95,79.854,5.134,77.018,10.286,77.018 M10.286,76.518L10.286,76.518
						c-5.492,0-9.832,3.022-9.88,6.882c-0.023,1.906,1.017,3.699,2.93,5.047c1.856,1.308,4.327,2.046,6.957,2.078l0.18,0.001
						c5.493,0,9.833-3.022,9.88-6.882c0.047-3.861-4.388-7.058-9.887-7.125L10.286,76.518z"/>
					<path clip-path="url(#SVGID_12_)" fill-rule="evenodd" clip-rule="evenodd" fill="#D67DAD" d="M18.738,80.511
						c4.339,9.557-20.642,9.4-16.759-0.055c-0.674,0.881-1.06,1.883-1.074,2.95c-0.044,3.591,4.162,6.554,9.394,6.618
						s9.509-2.795,9.553-6.387C19.867,82.511,19.462,81.444,18.738,80.511"/>
				</g>
			</g>
		</g>
	</g>
	<g id="Grass_1_">
		<g id="Grass_x5F_right_1_">
			<g id="Form_41_6_">
				<g>
					<path fill-rule="evenodd" clip-rule="evenodd" fill="#CDE4E7" d="M91.398,80.49c-0.504,0.998,0.305,2.305-5.54,8.951
						c-0.035,0.353-0.13,0.594,0.029,0.523c4.987-5.809,5.661-8.085,5.711-9.365C91.648,80.405,91.562,80.372,91.398,80.49z"/>
				</g>
			</g>
			<g id="Form_41_Kopie_8_">
				<g>
					<path fill-rule="evenodd" clip-rule="evenodd" fill="#CDE4E7" d="M88.279,80.971c-0.24,1.023-0.724,2.738-2.9,7.991
						c-0.035,0.353-0.253,1.428-0.093,1.357c0.715-2.437,2.896-7.123,3.17-9.287C88.5,80.829,88.354,80.718,88.279,80.971z"/>
				</g>
			</g>
			<g id="Form_41_Kopie_2_8_">
				<g>
					<path fill-rule="evenodd" clip-rule="evenodd" fill="#CDE4E7" d="M83.475,83.701c-0.251,0.027-0.268,0.244,0.023,0.239
						c2.163-0.259,1.903,0.935,1.603,6.612c0.085,0.344,0.075,0.603,0.201,0.483C85.587,85.635,86.295,83.356,83.475,83.701z"/>
				</g>
			</g>
		</g>
		<g id="Grass_x5F_mid_x5F_right_1_">
			<g id="Form_41_1_">
				<g>
					<path fill-rule="evenodd" clip-rule="evenodd" fill="#CDE4E7" d="M56.964,93.805c-0.264,0.328-2.26,2.664-2.353,2.905
						c-0.092,0.242-0.007,0.574,0.123,0.399s2.275-2.999,2.497-3.241C57.453,93.625,57.228,93.477,56.964,93.805z"/>
				</g>
			</g>
			<g id="Form_41_Kopie_1_">
				<g>
					<path fill-rule="evenodd" clip-rule="evenodd" fill="#CDE4E7" d="M55.114,90.916c-0.123,1.256-1.063,4.212-1.176,4.525
						c-0.112,0.314-0.085,0.843,0.099,0.444c0.106-0.459,1.368-4.186,1.299-5.014C55.307,90.181,55.122,90.495,55.114,90.916z"/>
				</g>
			</g>
			<g id="Form_41_Kopie_2_1_">
				<g>
					<path fill-rule="evenodd" clip-rule="evenodd" fill="#CDE4E7" d="M53.792,91.707c0.063-0.389-0.138-0.245-0.243-0.022
						c-1.076,3.87,1.013,4.942,1.066,5.562c0.084,0.344,0.307,0.095,0.305-0.082C53.491,95.57,53.144,93.636,53.792,91.707z"/>
				</g>
			</g>
		</g>
		<g id="Grass_x5F_mid_x5F_left_1_">
			<g id="Form_41_Kopie_4_">
				<g>
					<path fill-rule="evenodd" clip-rule="evenodd" fill="#CDE4E7" d="M40.954,94.036c-0.607,0.719-1.514,3.054-1.152,6.18
						c0.079,0.327,0.192,0.269,0.211,0.046c-0.231-4.489,1.006-6.047,1.163-6.27C41.333,93.769,41.103,93.795,40.954,94.036z"/>
				</g>
			</g>
			<g id="Form_41_Kopie_2_4_">
				<g>
					<path fill-rule="evenodd" clip-rule="evenodd" fill="#CDE4E7" d="M39.56,100.524c-1.429-1.594-1.202-2.646-1.368-4.737
						c-0.025-0.28-0.244-0.277-0.244-0.023c-0.073,3.306,0.761,4.428,1.307,4.844C39.429,100.775,39.745,100.674,39.56,100.524z"/>
				</g>
			</g>
		</g>
		<g id="Grass_x5F_left_1_">
			<g id="Form_41_2_">
				<g>
					<path fill-rule="evenodd" clip-rule="evenodd" fill="#CDE4E7" d="M13.159,87.211c-1.021,0.848-1.975,3.594-4.292,7.667
						c0.083,0.282-0.066,0.471,0.094,0.4c2.424-4.419,3.539-7.088,4.338-7.983C13.558,86.884,13.338,86.945,13.159,87.211z"/>
				</g>
			</g>
			<g id="Form_41_Kopie_3_">
				<g>
					<path fill-rule="evenodd" clip-rule="evenodd" fill="#CDE4E7" d="M9.256,86.792c0.008-0.521-0.168-0.553-0.177-0.062
						c-0.009,0.491-0.091,8.189-0.243,8.854c-0.071,0.39,0.196,0.257,0.237-0.016C9.322,95.137,9.248,87.313,9.256,86.792z"/>
				</g>
			</g>
			<g id="Form_41_Kopie_2_3_">
				<g>
					<path fill-rule="evenodd" clip-rule="evenodd" fill="#CDE4E7" d="M2.834,88.98c-0.251,0.028-0.268,0.245,0.024,0.24
						c1.602,0.218,5.459,1.285,5.922,5.892c0.085,0.344,0.075,0.603,0.202,0.483C8.652,89.801,4.709,89.302,2.834,88.98z"/>
				</g>
			</g>
		</g>
	</g>
</g>
<g id="Bunny_1_">
	<g id="Body_1_">
		<g id="body_2_">
			<path fill-rule="evenodd" clip-rule="evenodd" fill="#FFFFFF" d="M73.064,99.677c-0.261,0-0.528-0.012-0.801-0.038
				c-1.485-0.27-4.036-2.401-6.736-4.658c-0.857-0.717-1.73-1.446-2.588-2.133c-2.953-1.979-5.922-3.688-7.887-4.82
				c-0.767-0.442-1.367-0.788-1.736-1.019c-1.208-1.101-1.821-2.317-1.86-3.646c-0.041-1.396,0.551-2.684,1.231-3.692
				c-1.329,0.759-2.835,1.162-4.386,1.162c-1.306,0-2.543-0.298-3.263-0.734c0.147,2.046-1.224,4.009-2.634,5.694
				c-0.301,0.359-0.836,0.783-1.515,1.319c-1.082,0.855-2.429,1.92-3.534,3.279c-0.525,0.647-1.029,1.356-1.516,2.043
				c-1.483,2.089-3.018,4.25-5.402,4.985c-1.372,0.613-2.83,0.93-4.306,0.93c-3.079,0-5.822-1.423-6.67-3.461
				c-0.535-1.285-0.212-2.614,0.91-3.743c2.218-1.286,3.972-2.837,5.668-4.336c1.501-1.326,3.044-2.689,4.89-3.864
				c-0.106,0.007-0.212,0.011-0.317,0.011c-4.853,0-8.112-7.151-8.112-13.83c0-3.42,0.854-6.508,2.405-8.695
				c1.828-2.578,4.62-3.941,8.073-3.941c0.109,0,0.22,0.002,0.332,0.004c-0.175-3.026,1.226-8.423,3.98-10.514
				c2.021-0.635,7.856-1.272,13.444-1.272c4.173,0,9.631,0.346,11.942,1.99l0.045,0.031l0.027,0.047
				c1.684,2.912,3.301,6.528,2.64,11.336c0.875-0.2,1.704-0.301,2.47-0.301c3.17,0,5.354,1.729,6.146,4.869
				c1.433,5.675-1.982,14.72-8.696,18.475c0.679,1.452,3.854,2.961,6.928,4.422c3.256,1.547,6.331,3.008,7.114,4.599
				c1.093,1.481,1.168,3.647,0.172,5.614C78.307,98.188,75.833,99.677,73.064,99.677C73.064,99.677,73.065,99.677,73.064,99.677z"/>
			<path fill="#62B6BC" d="M50.733,44.957c4.929,0.001,9.756,0.492,11.798,1.943c1.716,2.969,3.337,6.652,2.555,11.541
				c1.016-0.26,1.938-0.381,2.771-0.381c10.035,0,7.068,17.626-2.863,22.98c0.992,3.14,12.598,6.131,14.13,9.244
				c2.39,3.253-0.495,9.142-6.06,9.142c-0.253,0-0.513-0.012-0.777-0.037c-1.848-0.336-5.652-3.903-9.191-6.737
				c-4.148-2.781-8.346-5.045-9.647-5.855c-3.538-3.242-0.838-6.923,0.637-8.444c0.152-0.137,0.303-0.282,0.45-0.436
				c-0.126,0.114-0.28,0.261-0.45,0.436c-1.857,1.683-4.006,2.23-5.783,2.23c-1.949,0-3.453-0.66-3.637-1.206
				c-0.003-0.013-0.007-0.025-0.011-0.038c0.003,0.013,0.006,0.025,0.011,0.038c0.641,2.309-1.111,4.653-2.452,6.256
				c-0.746,0.892-3.239,2.371-5.051,4.602c-2.12,2.609-3.726,5.999-6.798,6.946c-1.441,0.643-2.886,0.919-4.232,0.919
				c-4.967,0-8.574-3.767-5.583-6.778c4.561-2.623,7.152-6.439,11.883-8.965c-0.626,0.238-1.233,0.35-1.82,0.35
				c-8.938,0-12.793-25.97,2.366-25.967c0.197,0,0.399,0.005,0.602,0.014c-0.262-2.721,1.044-8.436,3.861-10.574
				C39.334,45.6,45.1,44.957,50.733,44.957 M50.733,44.457c-5.611,0-11.479,0.644-13.439,1.244l-0.085,0.025l-0.071,0.054
				c-2.74,2.079-4.173,7.333-4.09,10.46c-0.023-0.001-0.047-0.001-0.071-0.001h-0.002c-3.92,0-6.971,1.695-8.823,4.902
				c-3.054,5.288-2.122,13.226,0.544,17.844c1.456,2.521,3.366,3.993,5.423,4.196c-1.567,1.075-2.922,2.272-4.245,3.44
				c-1.687,1.491-3.431,3.033-5.575,4.266l-0.058,0.033l-0.047,0.048c-1.197,1.206-1.539,2.632-0.962,4.016
				c0.886,2.129,3.724,3.615,6.901,3.615c1.501,0,2.985-0.319,4.408-0.95c2.449-0.769,4.002-2.955,5.503-5.07
				c0.485-0.683,0.986-1.389,1.507-2.029c1.087-1.339,2.422-2.394,3.495-3.241c0.689-0.545,1.234-0.976,1.551-1.354
				c1.351-1.614,2.664-3.479,2.708-5.442c0.771,0.351,1.851,0.571,2.998,0.571c1.295,0,2.559-0.273,3.719-0.792
				c-0.49,0.903-0.848,1.955-0.814,3.079c0.041,1.398,0.682,2.675,1.904,3.795l0.034,0.032l0.039,0.024
				c0.375,0.233,0.979,0.581,1.745,1.022c1.962,1.13,4.926,2.837,7.889,4.823c0.82,0.66,1.699,1.395,2.55,2.104
				c2.845,2.378,5.302,4.432,6.83,4.71c0.318,0.032,0.596,0.045,0.867,0.045c2.863,0,5.422-1.542,6.679-4.025
				c1.031-2.037,0.957-4.284-0.191-5.878c-0.852-1.652-3.94-3.12-7.21-4.674c-2.759-1.311-5.854-2.781-6.697-4.1
				c6.666-3.882,10.04-12.93,8.601-18.631c-0.823-3.263-3.092-5.059-6.388-5.059c-0.682,0-1.411,0.077-2.177,0.231
				c0.548-4.706-1.053-8.264-2.717-11.142l-0.054-0.094l-0.089-0.063C60.455,44.811,54.942,44.458,50.733,44.457L50.733,44.457z"/>
		</g>
		<g id="Inner_1_">
			<g id="leg_x5F_left">
				<g id="shadow_x5F_leg_x5F_left">
					<g>
						<path fill-rule="evenodd" clip-rule="evenodd" fill="#E0E0E0" d="M24.287,61.943c-4.184,8.277,0.717,23.237,8.144,20.413
							C38.042,76.982,21.183,87.85,24.287,61.943z"/>
					</g>
				</g>
				<g id="shadow_x5F_feet_x5F_left">
					<g>
						<path fill-rule="evenodd" clip-rule="evenodd" fill="#E0E0E0" d="M54.582,75.599c-0.853,0.131-1.989,2.024-3.786,2.202
							c-5.253,0.602-5.082-0.887-6.559-0.603c-0.215,0.246-0.306,2.617-0.545,3.292c-1.597,3.495-3.729,3.845-6.646,7.065
							c-1.699,1.703-2.927,6.585-8.231,7.8c-7.249,1.104-9.003-1.782-8.267-4.034c-3.801,3.828,3.055,8.874,9.815,5.859
							c3.073-0.947,4.678-4.337,6.798-6.946c1.812-2.23,4.305-3.71,5.051-4.602c1.348-1.611,3.112-3.973,2.441-6.294
							c0.248,1.087,5.901,2.702,9.881-1.422C55.08,77.32,55.434,75.469,54.582,75.599z"/>
					</g>
				</g>
				<g id="Form_40_Kopie_2">
					<g>
						<path fill-rule="evenodd" clip-rule="evenodd" fill="#62B6BC" d="M25.659,94.087c-0.053-0.053-0.214-0.143-0.257-0.088
							c-2.006,0.281-2.933,3.279-0.905,4.173c0.143,0.055,0.289,0.085,0.397,0.038C23.257,97.139,23.41,95.008,25.659,94.087z"/>
					</g>
				</g>
				<g id="Form_40_Kopie_3">
					<g>
						<path fill-rule="evenodd" clip-rule="evenodd" fill="#62B6BC" d="M22.404,92.919c-0.053-0.053-0.192-0.164-0.234-0.108
							c-1.878,0.062-1.562,3.783-1.033,4.161c0.143,0.055,0.289,0.085,0.396,0.038C21.174,96.747,20.51,93.307,22.404,92.919z"/>
					</g>
				</g>
			</g>
			<g id="leg_x5F_right">
				<g id="shadow_x5F_foot_x5F_right_2_">
					<g>
						<path fill-rule="evenodd" clip-rule="evenodd" fill="#E0E0E0" d="M79.124,90.285c-0.093-0.188-0.223-0.377-0.385-0.564
							c2.03,4.305-2.938,8.429-7.021,6.989c-3.196-1.589-5.042-3.797-8.446-6.609c-3.165-2.274-6.969-4.348-8.857-5.378
							c-1.889-1.031-2.251-2.501-1.731-4.579c-1.111,1.814-1.754,4.345,0.765,6.653c1.302,0.811,5.499,3.074,9.647,5.855
							c3.539,2.834,7.344,6.401,9.191,6.737C78.354,99.97,81.623,93.687,79.124,90.285z"/>
					</g>
				</g>
				<g id="shadow_x5F_leg_x5F_right_2_">
					<g>
						<path fill-rule="evenodd" clip-rule="evenodd" fill="#E0E0E0" d="M72.33,59.895c3.896,11.121-6.895,18.474-7.942,19.258
							c0.069,0.671,0.336,1.174,0.606,1.889C72.963,76.745,76.449,64.547,72.33,59.895z"/>
					</g>
				</g>
				<g id="Form_40_2_">
					<g>
						<path fill-rule="evenodd" clip-rule="evenodd" fill="#62B6BC" d="M74.818,94.829c-0.043-0.056-0.204,0.034-0.258,0.087
							c2.009,0.411,1.682,3.341,0.286,4.363c0.107,0.047,0.254,0.017,0.396-0.038C77.013,97.978,76.822,94.732,74.818,94.829z"/>
					</g>
				</g>
				<g id="Form_40_Kopie_2_">
					<g>
						<path fill-rule="evenodd" clip-rule="evenodd" fill="#62B6BC" d="M78.028,92.936c-0.042-0.056-0.181,0.056-0.234,0.108
							c1.895,0.388,0.75,4.067,0.392,4.331c0.107,0.047,0.254,0.017,0.396-0.038C79.111,96.959,80.11,92.835,78.028,92.936z"/>
					</g>
				</g>
			</g>
			<g id="arm_x5F_left_1_">
				<g id="arm_x5F_left">
					<path fill-rule="evenodd" clip-rule="evenodd" fill="#FFFFFF" d="M38.888,72.689c-0.081,0-0.162-0.005-0.244-0.013
						c-4.568-0.288-5.974-7.338-5.787-13.287c0.23-7.315,2.718-15.091,6.875-15.091c0.177,0,0.355,0.014,0.537,0.044
						c2.565,0.417,3.563,11.368,2.983,18.548C42.957,66.55,41.998,72.689,38.888,72.689z"/>
					<path fill="#62B6BC" d="M39.732,44.549c0.164,0,0.329,0.014,0.497,0.041c3.535,0.574,4.749,27.85-1.341,27.85
						c-0.072,0-0.145-0.004-0.218-0.012C29.933,71.878,32.36,44.552,39.732,44.549 M39.733,44.049h-0.002
						c-4.316,0.002-6.892,7.906-7.124,15.342c-0.189,6.058,1.277,13.236,6.031,13.536c0.071,0.008,0.161,0.013,0.25,0.013
						c3.144,0,4.244-5.454,4.614-10.028c0.58-7.19-0.397-18.361-3.193-18.815C40.117,44.064,39.923,44.049,39.733,44.049
						L39.733,44.049z"/>
				</g>
				<g id="shadow_x5F_arm_x5F_left">
					<g>
						<path fill-rule="evenodd" clip-rule="evenodd" fill="#E0E0E0" d="M34.412,51.059c-2.469,8.119-1.71,20.993,4.258,21.369
							c3.208,0.332,4.484-6.657,4.498-13.716C41.999,78.931,30.759,71.669,34.412,51.059z"/>
					</g>
				</g>
				<g id="Form_39">
					<g>
						<path fill-rule="evenodd" clip-rule="evenodd" fill="#62B6BC" d="M39.885,67.723c-0.068-0.087-0.256-0.055-0.259,0.076
							c-0.158,0.863,0.567,2.353,1.326,3.48c0.076,0.074,0.08-0.089,0.149-0.24C40.318,70.05,39.751,68.465,39.885,67.723z"/>
					</g>
				</g>
				<g id="Form_39_Kopie">
					<g>
						<path fill-rule="evenodd" clip-rule="evenodd" fill="#62B6BC" d="M36.589,68.701c-0.055-0.066-0.108-0.063-0.177-0.121
							c-0.268,0.609,0.004,2.479,0.424,3.604c0.058,0.089,0.155,0.022,0.258-0.109C36.563,70.931,36.505,69.297,36.589,68.701z"/>
					</g>
				</g>
			</g>
			<g id="arm_x5F_right_1_">
				<g id="arm_x5F_right_3_">
					<path fill-rule="evenodd" clip-rule="evenodd" fill="#FFFFFF" d="M58.062,73.554c-0.106,0-0.214-0.004-0.322-0.013
						c-0.665-0.021-1.249-0.319-1.727-0.883c-2.245-2.648-1.529-10.213-1.118-13.342c0.764-5.808,2.855-14.01,5.118-14.064
						c0.001,0,0.003,0,0.004,0c1.05,0,1.919,0.405,2.67,1.203c2.023,2.151,3.101,7.307,2.744,13.134
						C65.006,66.539,62.562,73.554,58.062,73.554L58.062,73.554z"/>
					<path fill="#62B6BC" d="M60.099,45.501c3.87,0,5.512,7.065,5.083,14.072c-0.422,6.894-2.846,13.73-7.119,13.73
						c-0.101,0-0.201-0.004-0.304-0.012c-3.184-0.107-3.524-7.033-2.615-13.943c0.908-6.909,3.065-13.804,4.876-13.847
						C60.046,45.502,60.072,45.501,60.099,45.501 M60.099,45.001l-0.091,0.001c-2.563,0.062-4.609,8.574-5.36,14.281
						c-0.416,3.162-1.134,10.812,1.175,13.536c0.525,0.62,1.172,0.947,1.92,0.973c0.094,0.007,0.208,0.012,0.32,0.012
						c4.662,0,7.186-7.132,7.618-14.2c0.287-4.689-0.301-10.65-2.811-13.319C62.068,45.433,61.137,45.001,60.099,45.001
						L60.099,45.001z"/>
				</g>
				<g id="shadow_x5F_arm_x5F_right_2_">
					<g>
						<path fill-rule="evenodd" clip-rule="evenodd" fill="#E0E0E0" d="M64.07,49.375c3.726,23.851-11.518,31.177-8.711,8.476
							c-1.159,7.369-1.015,15.326,2.399,15.441C64.59,73.8,66.891,57.134,64.07,49.375z"/>
					</g>
				</g>
				<g id="Form_39_Kopie_2_2_">
					<g>
						<path fill-rule="evenodd" clip-rule="evenodd" fill="#62B6BC" d="M57.583,68.602c-0.093,0.748-1.104,2.093-2.146,2.805
							c0.021,0.166,0.071,0.273,0.167,0.227c1.059-0.853,2.099-2.011,2.204-2.882C57.844,68.625,57.674,68.538,57.583,68.602z"/>
					</g>
				</g>
				<g id="Form_39_Kopie_3_2_">
					<g>
						<path fill-rule="evenodd" clip-rule="evenodd" fill="#62B6BC" d="M59.84,70.335c-0.127,0.588-0.824,2.188-1.717,3.078
							c0.051,0.159,0.201,0.17,0.285,0.105c0.781-0.91,1.682-2.572,1.639-3.236C59.963,70.312,59.915,70.291,59.84,70.335z"/>
					</g>
				</g>
			</g>
			<g id="arm_x5F_overlay">
				<g>
					<polygon fill-rule="evenodd" clip-rule="evenodd" fill="#FFFFFF" points="41.396,46.576 40.092,58.773 45.594,58.523 
						53.889,58.226 57.18,58.101 59.737,46.232 					"/>
				</g>
			</g>
		</g>
	</g>
	<g id="Head_1_">
		<g id="Glasses_x5F_Back_1_" display="none">
			<g id="Form_22" display="inline" opacity="0.7216">
				<g>
					<path fill-rule="evenodd" clip-rule="evenodd" fill="#F48EC5" d="M19.793,15.911l-0.579,5.692
						c2.545-0.28,10.964,3.391,10.964,3.391l2.709-1.797L19.793,15.911z"/>
				</g>
			</g>
			<g id="Form_23" display="inline" opacity="0.7216">
				<g>
					<polygon fill-rule="evenodd" clip-rule="evenodd" fill="#F48EC5" points="69.377,25.772 69.671,28.387 80.518,28.527 
						81.169,22.871 					"/>
				</g>
			</g>
		</g>
		<g id="face">
			<g id="head">
				<path fill-rule="evenodd" clip-rule="evenodd" fill="#FFFFFF" d="M50.293,50.645c-0.417,0-0.83-0.015-1.241-0.045
					c-6.434-0.475-15.022-4.297-18.676-11.564c-2.029-4.036-3.266-10.708,2.36-19.57c0.608-1.053,0.347-2.988-0.64-4.701
					c-1.037-1.799-2.538-2.83-4.119-2.83c-0.015,0-0.03,0-0.044,0c-1.725,9.396-4.712,15.819-8.879,19.092l-0.103,0.08l-0.125-0.037
					c-1.693-0.514-3.066-4.754-3.194-9.863C15.535,17.32,16.096,4.33,27.411,0.269c3.255,0.103,6.093,1.386,8.085,3.595
					c2.079,2.307,3.131,5.523,2.986,9.098c4.546-2.142,8.375-3.141,12.019-3.141c3.758,0,7.468,1.024,12.371,3.422
					C67.714,5.562,73.157,1.621,79.508,1.195c5.083,0.422,7.79,6.572,8.234,12.482c0.372,4.953-0.812,10.662-4.292,11.49
					c-4.141-0.034-6.483-6.795-6.663-13.264c-0.17,0.061-0.348,0.12-0.531,0.184c-2.716,0.925-6.814,2.32-7.629,7.639
					c3.409,7.582,3.145,15.078-0.749,21.113c-3.842,5.955-10.743,9.805-17.582,9.805C50.295,50.645,50.294,50.645,50.293,50.645z"/>
				<path fill="#62B6BC" d="M27.495,0.504c6.408,0.238,11.22,5.285,10.715,12.863c4.734-2.276,8.616-3.297,12.291-3.297
					c4.108,0,7.959,1.273,12.463,3.495c4.694-7.521,10.134-11.69,16.561-12.121c9.381,0.784,10.382,21.931,3.868,23.48
					c-4.166-0.042-6.269-7.372-6.363-13.372c-2.674,0.98-7.762,2.077-8.66,8.21c8.138,17.986-6.056,30.632-18.073,30.632
					c-0.412,0-0.819-0.015-1.226-0.045c-12.246-0.903-27.569-12.721-16.124-30.752c1.323-2.285-1.141-7.914-4.97-7.914
					c-0.084,0-0.169,0.003-0.254,0.008c-1.118,6.178-3.419,14.893-8.824,19.137C15.153,29.692,12.136,6.018,27.495,0.504 M27.417,0
					l-0.091,0.033C15.854,4.152,15.283,17.285,15.382,21.211c0.114,4.544,1.309,9.471,3.372,10.096l0.249,0.076l0.205-0.161
					c4.186-3.286,7.19-9.688,8.933-19.034c1.412,0.072,2.799,1.07,3.74,2.701c0.93,1.613,1.197,3.488,0.635,4.459
					c-5.678,8.944-4.419,15.706-2.361,19.8c3.697,7.354,12.378,11.222,18.88,11.701c0.414,0.03,0.839,0.046,1.263,0.046
					c6.921,0,13.904-3.893,17.791-9.918c3.93-6.092,4.212-13.645,0.799-21.284c0.814-5.108,4.646-6.413,7.451-7.368
					c0.071-0.025,0.143-0.049,0.212-0.072c0.228,5.516,2.165,13.127,6.839,13.173l0.062,0.001l0.059-0.015
					c3.623-0.861,4.863-6.696,4.483-11.753C87.539,7.644,84.758,1.38,79.566,0.946l-0.038-0.003l-0.037,0.002
					C73.107,1.373,67.638,5.291,62.78,12.919c-4.841-2.345-8.533-3.349-12.279-3.349c-3.583,0-7.337,0.953-11.758,2.992
					c0.055-3.476-1.018-6.6-3.061-8.865c-2.038-2.262-4.939-3.572-8.168-3.693L27.417,0L27.417,0z"/>
			</g>
			<g id="shadow_x5F_face">
				<g>
					<path fill-rule="evenodd" clip-rule="evenodd" fill="#E0E0E0" d="M70.377,25.994c0.721,29.276-41.404,28.298-40.748,0.809
						C25.737,40.729,38.542,49.573,49.07,50.35C59.896,51.148,73.24,41.17,70.377,25.994z"/>
				</g>
			</g>
			<g id="shadow_x5F_left">
				<g>
					<path fill-rule="evenodd" clip-rule="evenodd" fill="#E0E0E0" d="M28.248,8.522c-0.012,0.411,0.054,1.742-0.244,3.176
						c2.218-0.034,4.957,2.796,5.315,6.228C33.655,15.609,34.526,10.086,28.248,8.522z"/>
				</g>
			</g>
			<g id="shadow_x5F_right">
				<g>
					<path fill-rule="evenodd" clip-rule="evenodd" fill="#E0E0E0" d="M68.499,19.041c1.312-5.856,6.44-6.543,8.385-7.461
						c0.031-1.111,0.169-2.379,0.161-3.746C74.386,8.417,67.453,12.43,68.499,19.041z"/>
				</g>
			</g>
			<g id="Features_1_">
				<g id="blush_x5F_right">
					<g>
						<circle fill-rule="evenodd" clip-rule="evenodd" fill="#FFD2D2" cx="62.813" cy="38.247" r="4.5"/>
					</g>
				</g>
				<g id="blush_x5F_left">
					<g>
						<circle fill-rule="evenodd" clip-rule="evenodd" fill="#FFD2D2" cx="35.214" cy="35.367" r="4.5"/>
					</g>
				</g>
				<g id="whiskers_1_">
					<g id="whiskers_x5F_right_1_">
						<g id="Form_36_4_">
							<g>
								<path fill-rule="evenodd" clip-rule="evenodd" fill="#FFFFFF" d="M78.464,33.273c-6.172-0.159-14.229,1.846-15.579,2.66
									c-0.084,0.107-0.08,0.232,0.041,0.237c1.908-0.979,13.019-2.919,15.578-2.661C78.528,33.457,78.583,33.305,78.464,33.273z"
									/>
							</g>
						</g>
						<g id="Form_36_Kopie_4_">
							<g>
								<path fill-rule="evenodd" clip-rule="evenodd" fill="#FFFFFF" d="M76.649,43.368c-5.445-2.933-13.386-4.776-14.952-4.606
									c-0.121,0.061-0.17,0.178-0.062,0.232c2.143-0.082,12.635,3.109,14.951,4.605C76.631,43.562,76.745,43.447,76.649,43.368z"
									/>
							</g>
						</g>
						<g id="Form_36_Kopie_2_4_">
							<g>
								<path fill-rule="evenodd" clip-rule="evenodd" fill="#FFFFFF" d="M70.63,48.293c-4.212-4.445-9.203-7.211-10.731-7.594
									c-0.135,0.016-0.222,0.107-0.14,0.196c2.039,0.663,9.075,5.388,10.732,7.593C70.546,48.469,70.692,48.4,70.63,48.293z"/>
							</g>
						</g>
					</g>
					<g id="whiskers_x5F_left_1_">
						<g id="Form_36_1_">
							<g>
								<path fill-rule="evenodd" clip-rule="evenodd" fill="#FFFFFF" d="M35.464,31.934c-1.119-1.11-6.295-3.004-12.33-4.304
									c-0.124,0.003-0.106,0.163-0.095,0.221c2.548,0.353,10.705,2.902,12.33,4.303C35.487,32.178,35.521,32.057,35.464,31.934z"
									/>
							</g>
						</g>
						<g id="Form_36_Kopie_1_">
							<g>
								<path fill-rule="evenodd" clip-rule="evenodd" fill="#FFFFFF" d="M35.656,35.409c-1.957-0.585-8.188-1.741-12.834-2.097
									c-0.111,0.054-0.027,0.192,0.007,0.239c3.135,0.396,10.771,1.513,12.834,2.098C35.78,35.621,35.76,35.497,35.656,35.409z"/>
							</g>
						</g>
						<g id="Form_36_Kopie_2_1_">
							<g>
								<path fill-rule="evenodd" clip-rule="evenodd" fill="#FFFFFF" d="M36.597,38.641c-1.666,0.33-4.375,0.496-8.836,2.839
									c-0.085,0.089,0.041,0.19,0.089,0.223c3.171-1.708,6.936-2.542,8.836-2.839C36.786,38.798,36.724,38.688,36.597,38.641z"/>
							</g>
						</g>
					</g>
				</g>
			</g>
			<g id="Eyes_1_">
				<g id="Form_15">
					<g>
						<circle fill-rule="evenodd" clip-rule="evenodd" fill="#62B6BC" cx="40.172" cy="27.052" r="3.463"/>
					</g>
				</g>
				<g id="Form_15_Kopie">
					<g>
						<circle fill-rule="evenodd" clip-rule="evenodd" fill="#62B6BC" cx="59.133" cy="29.452" r="3.464"/>
					</g>
				</g>
			</g>
			<g id="Nose_x5F_Mouth_1_">
				<g id="teath_1_">
					<g id="Form_34_2_">
						<g>
							<path fill-rule="evenodd" clip-rule="evenodd" fill="#62B6BC" d="M48.606,34.482c0,0.489-0.205,2.65-0.514,5.068
								c0.139,0,0.344-0.015,0.479-0.015c0.188-1.048,0.553-4.513,0.553-5.057C48.948,34.479,48.807,34.482,48.606,34.482z"/>
						</g>
					</g>
					<g id="Form_35_2_">
						<g>
							<path fill-rule="evenodd" clip-rule="evenodd" fill="#62B6BC" d="M46.025,38.946c0,0.186-0.069,0.251-0.092,0.364
								c0.69,0.28,1.879,0.742,4.691,0.469c-0.022-0.088,0.042-0.168,0.042-0.271C47.881,39.599,46.823,39.426,46.025,38.946z"/>
						</g>
					</g>
					<g id="Form_34_Kopie_2_">
						<g>
							<path fill-rule="evenodd" clip-rule="evenodd" fill="#62B6BC" d="M46.661,35.896c0,0.49-0.131,1.062-0.728,3.415
								c0.138,0,0.237-0.012,0.372-0.012c0.297-1.074,0.731-3.031,0.731-3.576C46.86,35.723,46.861,35.896,46.661,35.896z"/>
						</g>
					</g>
					<g id="Form_34_Kopie_2_2_">
						<g>
							<path fill-rule="evenodd" clip-rule="evenodd" fill="#62B6BC" d="M50.853,36.428c0,0.49-0.003,1.01-0.601,3.363
								c0.139,0,0.238-0.012,0.372-0.012c0.298-1.074,0.575-2.811,0.575-3.354C51.023,36.425,51.053,36.428,50.853,36.428z"/>
						</g>
					</g>
				</g>
				<g id="Form_16_1_">
					<g>
						<path fill-rule="evenodd" clip-rule="evenodd" fill="#62B6BC" d="M49.504,29.888c0,0-2.576,2.458-1.764,3.188
							c0.806,0.725,2.397,1.027,2.849-0.006C51.021,32.082,49.504,29.888,49.504,29.888z"/>
					</g>
				</g>
				<g id="Form_17_1_">
					<g>
						<path fill-rule="evenodd" clip-rule="evenodd" fill="#62B6BC" d="M46.63,35.775c-3.361,0.521-3.006-2.232-3.006-2.232
							s-0.636,2.426,1.601,2.742c2.237,0.316,4.076-1.342,3.846-2.918S49.376,35.303,46.63,35.775z"/>
					</g>
				</g>
				<g id="Form_17_Kopie_1_">
					<g>
						<path fill-rule="evenodd" clip-rule="evenodd" fill="#62B6BC" d="M54.225,34.652c0,0-0.172,2.77-3.374,1.623
							c-2.606-0.983-1.416-4.33-1.94-2.826s0.968,3.48,3.224,3.593C54.391,37.154,54.225,34.652,54.225,34.652z"/>
					</g>
				</g>
			</g>
		</g>
		<g id="Glasses_1_" display="none">
			<g id="Gruppe_7_1_" display="inline" opacity="0.502">
				<g id="Form_20_2_">
					<g>
						<polygon fill-rule="evenodd" clip-rule="evenodd" fill="#A5EDFF" points="43.893,20.08 37.458,18.023 28.027,17.416 
							23.497,19.324 23.188,21.287 22.436,23.076 23.084,27.638 23.084,30.223 24.589,32.619 26.818,34.488 29.079,35.816 
							31.268,36.385 35.113,36.488 39.327,35.523 43.993,31.963 46.906,26.134 47.114,22.461 						"/>
					</g>
				</g>
				<g id="Form_21_2_">
					<g>
						<polygon fill-rule="evenodd" clip-rule="evenodd" fill="#A5EDFF" points="76.732,25.26 75.656,23.859 70.306,21.844 
							66.896,21.123 61.91,20.946 57.997,21.335 54.875,22.66 53.436,24.624 53.436,28.001 54.732,31.525 55.7,35.695 
							59.546,38.031 63.392,39.864 66.757,39.864 70.103,39.541 73.987,37.251 76.509,33.658 77.045,29.245 						"/>
					</g>
				</g>
			</g>
			<g id="Form_24" display="inline" opacity="0.7216">
				<g>
					<rect x="19.844" y="17.695" fill-rule="evenodd" clip-rule="evenodd" fill="#FFFFFF" width="3.84" height="2.641"/>
				</g>
			</g>
			<g id="Form_25" display="inline" opacity="0.7216">
				<g>
					<rect x="76.724" y="23.455" fill-rule="evenodd" clip-rule="evenodd" fill="#FFFFFF" width="4.08" height="4.08"/>
				</g>
			</g>
			<g id="Form_19" display="inline">
				<g>
					<path fill-rule="evenodd" clip-rule="evenodd" fill="#F48EC5" d="M67.139,19.985c-5.76-0.64-14.41,0.47-16.53,0.24
						c-2.12-0.24-10.31-3.25-16.07-3.89c-5.76-0.641-10.74-0.291-14.76-0.58c-0.21,1.85-0.27,3.3-0.55,5.88
						c0.93,0.13,2.28,1.08,2.09,2.659c-0.19,1.58-2.68,11.69,11.76,13.301c14.44,1.609,11.32-12.37,16.9-11.74
						c5.58,0.61-0.54,13.59,13.9,15.2c14.439,1.601,14.24-8.8,14.399-10.39c0.16-1.58,1.681-2.211,2.63-2.141
						c0.29-2.57,0.54-4,0.75-5.85C77.669,22.076,72.898,20.636,67.139,19.985z M20.348,18.89c0.078-0.7,2.8-0.502,2.708,0.317
						C22.971,19.978,20.27,19.59,20.348,18.89z M32.2,35.44c-6.026-1.417-9.73-3.505-7.858-15.122
						c2.501-3.684,19.265-1.951,21.318,2.779C44.472,34.146,37.051,36.417,32.2,35.44z M65.21,39.143
						c-4.947-0.116-11.687-3.965-10.412-15.004c3.044-4.162,19.778-2.161,21.407,1.984C75.473,37.865,71.399,39.088,65.21,39.143z
						 M77.703,25.32c0.091-0.819,2.79-0.413,2.712,0.287S77.617,26.091,77.703,25.32z"/>
				</g>
			</g>
		</g>
		<g id="face_x5F_overlay">
			<g id="Left_x5F_Ear_1_">
				<g>
					<path fill-rule="evenodd" clip-rule="evenodd" fill="#FFFFFF" d="M18.826,31.068c-1.693-0.514-3.066-4.754-3.194-9.863
						C15.535,17.32,16.096,4.33,27.411,0.269l0.329,0.183c2.008,9.181-1.062,23.992-8.677,30.566L18.826,31.068z"/>
					<path fill="#62B6BC" d="M27.495,0.504c2.099,9.598-1.37,24.086-8.597,30.324C15.153,29.692,12.136,6.018,27.495,0.504
						 M27.326,0.033C15.854,4.152,15.283,17.285,15.382,21.211c0.114,4.543,1.309,9.471,3.372,10.096l0.472-0.1
						c7.682-6.632,10.781-21.561,8.758-30.811L27.326,0.033L27.326,0.033z"/>
				</g>
				<g>
					<path fill-rule="evenodd" clip-rule="evenodd" fill="#FFFFFF" d="M83.39,25.175c-2.438-0.024-4.322-1.921-5.451-5.484
						c-1.973-6.231-1.165-16.577,1.44-18.449l0.074-0.054l0.092,0.008c5.046,0.422,7.753,6.572,8.197,12.482
						c0.372,4.953-0.812,10.662-4.292,11.49l-0.029,0.008L83.39,25.175z"/>
					<path fill="#62B6BC" d="M79.524,1.444c9.381,0.784,10.382,21.931,3.868,23.48C75.468,24.846,76.059,3.935,79.524,1.444
						 M79.383,0.931l-0.15,0.107c-2.67,1.919-3.528,12.42-1.532,18.728c1.164,3.677,3.131,5.634,5.688,5.659l0.062,0.001
						l0.059-0.015c3.623-0.861,4.863-6.696,4.483-11.753C87.539,7.644,84.758,1.38,79.566,0.946L79.383,0.931L79.383,0.931z"/>
				</g>
				<g id="Background_Kopie_2_">
					<g>
						<path fill-rule="evenodd" clip-rule="evenodd" fill="#E0E0E0" d="M18.807,27.746c-3.357-3.84-1.428-16.619-1.722-15.676
							c-2.626,8.428-0.72,17.965,1.835,18.758c6.572-6.037,8.749-15.566,9.122-22.186C24.491,13.504,27.174,19.32,18.807,27.746z"/>
					</g>
				</g>
				<g id="Background_Kopie_8_2_">
					<g>
						<path fill-rule="evenodd" clip-rule="evenodd" fill="#FFFFFF" d="M79.524,1.444c-3.073,0.206-5.922,1.267-8.57,3.142
							c1.843,2.177-0.912,4.639,5.77,3.358c0.12-0.051,0.835-0.08,0.782,0C78.438,11.615,90.186,9.747,79.524,1.444z"/>
					</g>
				</g>
				<g id="Background_Kopie_10_2_">
					<g>
						<path fill-rule="evenodd" clip-rule="evenodd" fill="#E0E0E0" d="M77.138,9.912c0.022-0.461,0.054-0.914,0.094-1.357
							C77.154,8.951,77.125,9.41,77.138,9.912z M86.557,8.707c-0.205,25.189-9.239,8.505-9.419,1.205
							c-0.33,6.748,1.294,14.963,6.255,15.013C87.484,23.951,88.611,15.242,86.557,8.707z"/>
					</g>
				</g>
				<g id="Background_Kopie_5_2_">
					<g>
						<path fill-rule="evenodd" clip-rule="evenodd" fill="#FFFFFF" d="M32.342,1.744c-1.443-0.746-3.085-1.175-4.847-1.24
							c-3.691,1.325-6.322,3.7-8.135,6.559c1.654,1.834,3.2,2.25,8.498,1.585c0.078-0.046,0.975-0.064,1.047-0.078
							C33.959,7.365,32.38,4.65,32.342,1.744z"/>
					</g>
				</g>
			</g>
		</g>
	</g>
</g>
</svg>
