<?xml version="1.0" encoding="utf-8"?>
<!-- Generator: Adobe Illustrator 15.0.0, SVG Export Plug-In . SVG Version: 6.00 Build 0)  -->
<!DOCTYPE svg PUBLIC "-//W3C//DTD SVG 1.1//EN" "http://www.w3.org/Graphics/SVG/1.1/DTD/svg11.dtd">
<svg version="1.1" id="Egg_4_" xmlns="http://www.w3.org/2000/svg" xmlns:xlink="http://www.w3.org/1999/xlink" x="0px" y="0px"
	 width="18.421px" height="15.99px" viewBox="0 0 18.421 15.99" enable-background="new 0 0 18.421 15.99" xml:space="preserve">
<g>
	<path fill-rule="evenodd" clip-rule="evenodd" fill="#F48EC5" d="M12.096,15.74c-2.141,0-4.46-0.733-6.53-2.064
		c-2.171-1.396-3.841-3.292-4.701-5.339c-0.873-2.079-0.812-4.067,0.174-5.6C2.054,1.156,3.985,0.25,6.339,0.25
		c2.141,0,4.46,0.733,6.53,2.064c4.51,2.899,6.541,7.807,4.527,10.938C16.381,14.834,14.449,15.74,12.096,15.74z"/>
	<path fill="#CB609A" d="M6.339,0.5c2.014,0,4.289,0.671,6.396,2.024c4.401,2.83,6.395,7.572,4.452,10.594
		c-1.013,1.575-2.896,2.372-5.091,2.372c-2.014,0-4.289-0.671-6.396-2.024c-4.401-2.83-6.395-7.573-4.452-10.594
		C2.261,1.297,4.145,0.5,6.339,0.5 M6.34,0L6.34,0c-2.44,0-4.45,0.948-5.513,2.602c-1.031,1.604-1.1,3.675-0.193,5.833
		c0.88,2.093,2.583,4.029,4.796,5.452c2.11,1.356,4.478,2.104,6.666,2.104c2.439,0,4.448-0.948,5.512-2.602
		c2.088-3.248,0.023-8.311-4.603-11.285C10.895,0.747,8.527,0,6.34,0L6.34,0z"/>
</g>
<g id="shadow">
	<g>
		<path fill-rule="evenodd" clip-rule="evenodd" fill="#D67DAD" d="M16.823,6.71c3.107,10.359-15.796,6.872-15.575-3.838
			C-0.694,5.893,1.299,10.636,5.7,13.466c4.401,2.829,9.544,2.674,11.486-0.348C18.334,11.333,18.108,8.948,16.823,6.71z"/>
	</g>
</g>
</svg>
