<?xml version="1.0" encoding="utf-8"?>
<!-- Generator: Adobe Illustrator 15.0.0, SVG Export Plug-In . SVG Version: 6.00 Build 0)  -->
<!DOCTYPE svg PUBLIC "-//W3C//DTD SVG 1.1//EN" "http://www.w3.org/Graphics/SVG/1.1/DTD/svg11.dtd">
<svg version="1.1" id="Egg" xmlns="http://www.w3.org/2000/svg" xmlns:xlink="http://www.w3.org/1999/xlink" x="0px" y="0px"
	 width="19.948px" height="14.008px" viewBox="0 0 19.948 14.008" enable-background="new 0 0 19.948 14.008" xml:space="preserve">
<g>
	<path fill-rule="evenodd" clip-rule="evenodd" fill="#F48EC5" d="M9.891,13.757c-2.581-0.032-5.001-0.754-6.817-2.032
		c-1.843-1.299-2.846-3.018-2.824-4.84C0.296,3.227,4.616,0.25,9.88,0.25l0.176,0.001c5.361,0.066,9.686,3.148,9.641,6.872
		c-0.045,3.658-4.365,6.635-9.63,6.635L9.891,13.757z"/>
	<path fill="#CB609A" d="M9.88,0.5c0.058,0,0.115,0,0.173,0.001c5.232,0.064,9.438,3.027,9.394,6.619
		c-0.043,3.552-4.228,6.388-9.38,6.388c-0.058,0-0.115,0-0.173-0.001C4.662,13.442,0.456,10.479,0.5,6.888
		C0.544,3.336,4.728,0.5,9.88,0.5 M9.88,0L9.88,0C4.388,0,0.048,3.022,0,6.882c-0.023,1.906,1.017,3.699,2.93,5.047
		c1.855,1.308,4.327,2.046,6.957,2.078l0.18,0.001c5.493,0,9.833-3.022,9.88-6.882c0.047-3.861-4.388-7.058-9.887-7.125L9.88,0
		L9.88,0z"/>
</g>
<g id="Shadow">
	<g>
		<path fill-rule="evenodd" clip-rule="evenodd" fill="#D67DAD" d="M18.333,3.993c4.339,9.557-20.642,9.4-16.759-0.055
			C0.9,4.819,0.514,5.821,0.5,6.888c-0.044,3.592,4.161,6.555,9.394,6.619c5.232,0.064,9.509-2.795,9.553-6.387
			C19.462,5.993,19.057,4.927,18.333,3.993z"/>
	</g>
</g>
</svg>
