<?xml version="1.0" encoding="utf-8"?>
<!-- Generator: Adobe Illustrator 15.0.0, SVG Export Plug-In . SVG Version: 6.00 Build 0)  -->
<!DOCTYPE svg PUBLIC "-//W3C//DTD SVG 1.1//EN" "http://www.w3.org/Graphics/SVG/1.1/DTD/svg11.dtd">
<svg version="1.1" id="pilosaurus" xmlns="http://www.w3.org/2000/svg" xmlns:xlink="http://www.w3.org/1999/xlink" x="0px" y="0px"
	 width="183.58px" height="225.166px" viewBox="0 0 183.58 225.166" style="enable-background:new 0 0 183.58 225.166;"
	 xml:space="preserve">
<path style="fill-rule:evenodd;clip-rule:evenodd;fill:#FFFFFF;stroke:#000000;stroke-linecap:round;stroke-linejoin:round;stroke-miterlimit:10;" d="
	M115.34,64.252c0,0,3.989-5.943,4.32-12.24c0.331-6.296-9.329-21.871-11.88-25.199s3.419-11.016,9-9
	c5.58,2.015,17.641,13.848,18.359,15.12c0.72,1.271-5.039,47.521-5.039,47.521L115.34,64.252z"/>
<path style="fill-rule:evenodd;clip-rule:evenodd;fill:#FFFFFF;stroke:#000000;stroke-linecap:round;stroke-linejoin:round;stroke-miterlimit:10;" d="
	M57.74,118.252c0,0,1.229,3.004-2.16,11.881c-3.39,8.876-3.931,17.23-3.239,21.239c0.689,4.01,0.017,11.82,0.359,15.12
	c0.342,3.301-12.877-15.656-12.96-22.319C39.657,137.509,57.74,118.252,57.74,118.252z"/>
<path style="fill-rule:evenodd;clip-rule:evenodd;fill:#FFFFFF;stroke:#000000;stroke-linecap:round;stroke-linejoin:round;stroke-miterlimit:10;" d="
	M159.62,119.332c0.556-16.057,7.302-43.33,10.08-65.16c2.778-21.829-26.213-63.701-46.8-51.479
	c-7.989,6.897,13.385,11.847,2.88,69.479c-8.974-17.332-30.882-14.705-48.96-13.68C58.741,59.518,38.78,68.74,21.74,84.412
	c-3.66,3.857-10.005,16.169-11.52,19.08c-1.515,2.912-9.188,16.336-9.72,19.44c12.553-6.74,18.815-13.014,21.6-15.479
	c-1.797,1.367-14.185,17.945-12.24,32.399c1.945,14.454,9.824,30.724,10.08,35.28c0.256,4.556-2.893,21.436-3.6,23.04
	c-0.707,1.604,10.561-4.309,23.76-39.601c1.561-8.084,4.088-15.941,7.56-21.24s8.313-13.421,9-14.76
	c2.921,2.354,8.954,6.805,52.56,0.72c3.789,4.238,11.521,12.601,11.521,12.601s10.519,8.429,11.16,11.16
	c0.642,2.73-2.373,7.298-5.04,10.439c-2.668,3.142-6.311,6.837-9.721,8.641c-0.383,1.021,0.708,7.132,1.44,15.84
	c5.079,12.132,2.081,27.541,0.36,29.88c-1.618,2.754-4.014,6.756-4.681,7.56c-0.666,0.805,3.223,4.822,7.561,5.04
	c4.338,0.219,18.966,2.837,36.72-18.359c15.277-23.53,13.28-35.837,16.561-39.24c3.279-3.403,6.955-12.906,7.92-15.84
	C184.438,140.114,160.129,135.196,159.62,119.332z"/>
<path style="fill-rule:evenodd;clip-rule:evenodd;fill:#FFFFFF;stroke:#000000;stroke-linecap:round;stroke-linejoin:round;stroke-miterlimit:10;" d="
	M22.1,107.453c0,0,13.188-14.442,20.16-16.561"/>
<path style="fill-rule:evenodd;clip-rule:evenodd;fill:#FFFFFF;stroke:#000000;stroke-linecap:round;stroke-linejoin:round;stroke-miterlimit:10;" d="
	M125.78,72.172c0,0-2.342,13.434-1.994,17.115"/>
<path style="fill-rule:evenodd;clip-rule:evenodd;fill:#FFFFFF;stroke:#000000;stroke-linecap:round;stroke-linejoin:round;stroke-miterlimit:10;" d="
	M118.94,211.853c0,0,4.594-6.415,6.12-7.561c1.525-1.145,2.539-1.998,5.04-3.6c2.5-1.602,4.882-7.077,5.039-8.28
	c0.158-1.203-1.8-3.239-1.8-3.239"/>
<path style="fill-rule:evenodd;clip-rule:evenodd;fill:#FFFFFF;stroke:#000000;stroke-linecap:round;stroke-linejoin:round;stroke-miterlimit:10;" d="
	M56.66,122.572c0,0,3.243-5.782,3.601-11.52c0.356-5.738-2.263-11.039-2.521-11.16"/>
<path style="fill-rule:evenodd;clip-rule:evenodd;fill:#FFFFFF;stroke:#000000;stroke-linecap:round;stroke-linejoin:round;stroke-miterlimit:10;" d="
	M128.3,175.853c0.089-1.181,0.311-3.962,1.08-6.48c0.77-2.518,6.695-7.441,7.92-8.279"/>
<path style="fill-rule:evenodd;clip-rule:evenodd;fill:#FFFFFF;stroke:#000000;stroke-linecap:round;stroke-linejoin:round;stroke-miterlimit:10;" d="
	M139.101,200.332c1.489-0.215,6.072-2.423,7.56-4.319c1.884-1.498,6.018-4.377,7.92-6.12s2.941-7.508,3.24-8.28s3.6-2.16,3.6-2.16
	s-7.642,3.245-12.96,8.641C143.142,193.487,142.486,197.363,139.101,200.332z"/>
<path style="fill-rule:evenodd;clip-rule:evenodd;fill:#FFFFFF;stroke:#000000;stroke-linecap:round;stroke-linejoin:round;stroke-miterlimit:10;" d="
	M151.217,185.619c1.859,0.621,3.272,2.151,3.474,4.166c-0.779,0.846-4.889,3.799-6.883,5.346c-1.224-0.464-2.333-1.661-2.894-2.833
	C146.474,189.893,149.739,186.74,151.217,185.619z"/>
<path style="fill-rule:evenodd;clip-rule:evenodd;" d="M126.86,218.692c0,0,7.698-4.129,9.72-1.8
	C135.399,218.146,128.062,219.096,126.86,218.692z"/>
</svg>
