<?xml version="1.0" encoding="utf-8"?>
<!-- Generator: Adobe Illustrator 15.0.0, SVG Export Plug-In . SVG Version: 6.00 Build 0)  -->
<!DOCTYPE svg PUBLIC "-//W3C//DTD SVG 1.1//EN" "http://www.w3.org/Graphics/SVG/1.1/DTD/svg11.dtd">
<svg version="1.1" id="Ebene_1" xmlns="http://www.w3.org/2000/svg" xmlns:xlink="http://www.w3.org/1999/xlink" x="0px" y="0px"
	 width="342.688px" height="290.838px" viewBox="0 0 342.688 290.838" style="enable-background:new 0 0 342.688 290.838;"
	 xml:space="preserve">
<path style="fill-rule:evenodd;clip-rule:evenodd;" d="M122.185,106.512c3.53-2.562,16.977-3.002,22.05-2.281
	c2.258,18.826-46.262,55.307-50.183,57.786c-2.098,1.591-7.307,0.17-8.364-1.521C84.297,158.281,124.672,131.629,122.185,106.512z"
	/>
<path style="fill-rule:evenodd;clip-rule:evenodd;" d="M69.721,124c0.636,1.702,6.823,10.957,14.447,14.447
	s18.403,7.862,26.612,9.124c8.209,1.263,17.008-0.837,20.529-1.521s21.994-7.022,23.571-7.604c1.577-0.582,2.281,0.76,2.281,0.76
	s-0.608,3.601-5.322,7.603s-23.226,11.639-38.017,9.125c-14.791-2.515-29.315-9.552-33.455-12.166s-9.055-5.595-11.405-8.364
	S69.086,122.298,69.721,124z"/>
<path style="fill-rule:evenodd;clip-rule:evenodd;" d="M89.49,253.258c4.698-4.944,19.706-14.112,25.852-16.728
	s20.934-9.085,26.612-9.885c5.679-0.799,16.325,2.051,24.331,12.166c1.015,1.838,0.655,9.325-1.521,11.404
	c-3.458,2.789-14.716-6.236-20.529-9.123s-16.829-3.18-22.81,0c-5.981,3.179-17.609,7.988-19.769,9.884
	c-2.16,1.896-8.806,8.679-9.884,9.124C90.693,260.546,84.792,258.203,89.49,253.258z"/>
<path style="fill-rule:evenodd;clip-rule:evenodd;" d="M2.812,151.373c-6.715-18.732-2.173-53.318,22.05-79.076
	c24.223-25.758,73.957-50.832,111.01-71.472c5.882-3.153,7.939,3.69,6.843,4.562c-1.096,0.873-47.078,33.728-69.952,58.546
	S38.42,98.015,2.812,151.373z"/>
<path style="fill-rule:evenodd;clip-rule:evenodd;" d="M342.684,121.719c-0.307-12.445-0.043-48.893-22.05-75.274
	s-82.628-27.725-102.646-27.373c-20.019,0.353-69.658,13.252-100.365,33.455S78.59,85.305,69.721,103.471
	c-8.868,18.166-9.5,30.834-7.603,41.818c1.896,10.984,4.166,19.667,3.042,25.852c-1.125,6.185-7.866,26.428-9.885,31.175
	c-2.019,4.746-6.61,12.497,0.76,21.289c2.793,3.9,4.959,5.352,8.364,5.322c3.405-0.029,4.88-1.779,7.604-0.76
	c3.579,0.605,0.757,12.439,6.083,22.81c5.325,10.37,19.538,29.753,34.215,34.216c14.677,4.462,24.846,7.316,75.274,4.562
	c50.427-2.756,52.361,3.984,103.406-44.861C326.748,209.095,342.991,134.164,342.684,121.719z M283.377,240.333
	c-23.898,26.789-48.41,39.14-95.803,41.059s-53.48,0.046-72.233-6.083c-13.363-3.279-23.336-11.311-28.132-26.611
	c-3.561-6.011-1.018-23.713-5.323-28.894c-3.027-2.186-6.48-4.591-9.884-4.562c-6.169,0.441-9.651-0.585-9.884-4.562
	c-0.233-3.979,7.206-8.653,12.166-38.777c1.125-6.186,0.376-17.909-1.521-28.893c-1.896-10.984-0.825-27.88,3.802-36.497
	c3.923-7.647,12.676-23.987,44.86-45.621c39.011-23.922,75.205-30.729,91.241-31.174c29.679,0.276,84.939,5.612,101.126,24.331
	c20.607,28.277,20.47,57.788,20.529,67.67C334.379,131.602,319.144,204.534,283.377,240.333z"/>
</svg>
