<?xml version="1.0" encoding="utf-8"?>
<!-- Generator: Adobe Illustrator 15.0.0, SVG Export Plug-In . SVG Version: 6.00 Build 0)  -->
<!DOCTYPE svg PUBLIC "-//W3C//DTD SVG 1.1//EN" "http://www.w3.org/Graphics/SVG/1.1/DTD/svg11.dtd">
<svg version="1.1" id="Ebene_1" xmlns="http://www.w3.org/2000/svg" xmlns:xlink="http://www.w3.org/1999/xlink" x="0px" y="0px"
	 width="314.824px" height="340.553px" viewBox="0 0 314.824 340.553" style="enable-background:new 0 0 314.824 340.553;"
	 xml:space="preserve">
<path style="fill-rule:evenodd;clip-rule:evenodd;" d="M0.961,132.737c-2.591-7.239-0.044-29.587,8.841-40.67
	c8.886-11.083,48.984-45.854,65.425-53.931c16.441-8.077,41.172-20.912,45.09-22.987c3.918-2.076,27.995-13.574,30.944-15.03
	c2.949-1.457-8.232,10.877-14.146,15.914s-11.13,12.182-16.798,15.914s-13.253,8.808-21.219,11.494
	c-7.965,2.686-15.45,6.449-20.335,9.725C73.879,56.442,67.678,69.5,61.966,73.5s-7.656,8.927-12.377,14.146
	c-4.722,5.219-12.721,9.021-19.451,14.146C23.407,106.917,14.019,114.661,0.961,132.737z"/>
<path style="fill-rule:evenodd;clip-rule:evenodd;" d="M11.571,149.535C23.863,132.858,80.5,60.123,175.134,55.818
	c94.633-4.305,139.558,68.957,139.69,143.228c0.134,74.271-74.783,139.511-160.025,141.46
	c-85.243,1.947-130.085-56.914-139.691-74.267c10.079-13.946,32.712-27.407,32.712-27.407c7.1-3.467-5.152,12.922-4.42,14.146
	s4.42-0.884,4.42-0.884s0.511,10.312,1.769,11.493c1.257,1.182,0.554,0.294,2.652,0s-1.209,17.298,3.537,19.451
	c4.745,2.152,10.488-1.838,12.377-1.769s0.92,0.795,3.537,0.884s21.196-4.697,28.292-5.305c7.095-0.607,16.627-1.222,19.45,0
	c2.823,1.223,7.092,13.543,14.146,16.799c7.054,3.255,7.367,7.96,12.378,8.841c5.01,0.879,9.704-2.803,14.146-3.537
	c4.441-0.734,9.857,2.417,15.03,1.767c5.172-0.648,12.827-4.402,21.219-4.419c8.391-0.019,15.425-5.681,22.103-8.842
	c6.678-3.16,25.978-11.688,32.713-20.335s17.117-14.341,22.103-30.943s4.2-23.598,4.421-28.292
	c0.221-4.695,6.871-14.153,5.305-21.219c-1.566-7.066-0.555,0.171-3.536-9.726c-0.192-4.097,3.795-13.528,1.768-19.451
	c-2.026-5.922-9.473-18.233-10.609-22.103c-1.137-3.87-1.781-14.58-7.957-16.799c-6.176-2.218-14.846-8.537-18.566-9.725
	c-3.721-1.188-11.053,0.28-22.103-4.421c-11.051-4.701-7.493-8.396-10.609-9.726c-3.117-1.329-7.983-1.881-14.146-5.305
	s-6.503-6.625-9.726-7.957c-3.222-1.332-14.018-2.463-15.914-2.652s-0.392-3.613-2.652-3.536
	c-2.261,0.076-35.971,15.335-39.785,15.029c-3.814-0.305,0.296-2.753-2.652-1.768s-14.666,8.041-18.566,9.726
	c-3.901,1.684-14.149,0.924-16.798,2.652c-2.65,1.728-6.605,5.772-8.841,6.188s-5.959,5.957-8.841,7.957
	c-2.882,2.001-11.327,5.912-14.146,7.957c-2.819,2.046-7.921,7.251-9.725,7.957c-1.804,0.706-2.427,6.132-6.189,7.957
	c-3.762,1.826-12.087,9.662-12.377,12.378c-0.291,2.716,2.878,6.538,6.188,10.609c3.31,4.072,8.512,11.083,13.262,15.03
	c4.75,3.947,4.557,6.114,11.494,7.957s16.721,3.046,19.451,2.652c2.73-0.395,3.084,1.609,6.189-0.884
	c3.105-2.494,14.242-6.97,15.914-9.726c1.672-2.757,1.006-4.199-0.884-7.073c-1.891-2.874-5.136-8.44-7.073-13.262
	s1.367-6.761-1.768-10.609s-20.335-7.957-20.335-7.957s-1.079-2.82,2.652-6.188c3.731-3.369,18.663-11.791,20.335-11.494
	c1.672,0.298,1.042,5.726,2.652,9.726c1.61,3.999,4.08,7.311,7.957,10.609s9.195,7.554,10.609,9.726s3.549,12.43,5.305,12.377
	c1.756-0.052,2.687-2.922,5.305-5.305s15.685-13.409,18.567-17.682c2.881-4.272,8.706-10.656,10.609-12.378
	c1.902-1.722,5.305-0.885,5.305-0.885s4.534-0.653,0,4.421c-4.535,5.074-7.341,5.861-9.726,9.726
	c-2.384,3.864-8.501,15.311-11.494,18.566c-2.993,3.257-14.471,12.921-15.914,15.914s-0.265,2.763,0,6.189
	c0.265,3.426,1.094,10.202,1.768,14.146c0.674,3.943,3.878,8.569,4.421,11.493c0.542,2.925,2.301,3.403,4.42,12.378
	c2.12,8.975,4.387,13.953,3.537,16.799c-0.851,2.845-1.774,11.193-3.537,12.377c-1.762,1.185-3.362-3.807-6.188-6.188
	s-4.175-8.779-4.421-12.378c-0.245-3.599,0.678-6.425-2.652-7.957c-3.33-1.531-6.663-7.271-7.957-11.493s-2.765-13.054-3.537-14.146
	c-0.771-1.092-1.227-6.207-1.768-7.072c-0.542-0.866-2.738,2.183-4.42,4.42c-1.683,2.238-8.918,9.689-11.494,12.378
	c-2.576,2.688-7.913,8.438-9.726,9.726c-1.812,1.287-8.211-0.761-13.262-3.537c-5.05-2.775-12.302-6.721-15.914-10.609
	c-3.613-3.888-7.691-7.944-10.609-9.725c-2.918-1.781-5.867-3.421-9.726-6.189s-5.718-10.73-7.957-14.146s-6.262-9.869-8.841-12.378
	S11.269,152.742,11.571,149.535z"/>
</svg>
