<?xml version="1.0" encoding="utf-8"?>
<!-- Generator: Adobe Illustrator 15.0.0, SVG Export Plug-In . SVG Version: 6.00 Build 0)  -->
<!DOCTYPE svg PUBLIC "-//W3C//DTD SVG 1.1//EN" "http://www.w3.org/Graphics/SVG/1.1/DTD/svg11.dtd">
<svg version="1.1" id="Cake" xmlns="http://www.w3.org/2000/svg" xmlns:xlink="http://www.w3.org/1999/xlink" x="0px" y="0px"
	 width="314.857px" height="300.801px" viewBox="0 0 314.857 300.801" enable-background="new 0 0 314.857 300.801"
	 xml:space="preserve">
<g id="cake">
	<g id="shadow">
		<g>
			<ellipse fill-rule="evenodd" clip-rule="evenodd" fill="#D4D4D4" cx="157.429" cy="261.694" rx="157.429" ry="39.106"/>
		</g>
	</g>
	<g id="first_x5F_layer">
		<g>
			<path fill-rule="evenodd" clip-rule="evenodd" fill="#52463A" d="M18.41,206.852v48.579c0,17.498,62.843,31.683,140.363,31.683
				s140.363-14.185,140.363-31.683v-48.579H18.41z"/>
		</g>
	</g>
	<g id="second_x5F_layer">
		<g>
			<path fill-rule="evenodd" clip-rule="evenodd" fill="#F17A7A" d="M299.198,154.743H18.41v76.212h0.015
				c0.641,16.215,63.221,29.318,140.336,29.318c77.116,0,139.695-13.104,140.336-29.318h0.101V154.743z"/>
		</g>
	</g>
	<g id="topping">
		<g>
			<path fill-rule="evenodd" clip-rule="evenodd" fill="#52463A" d="M196.577,232.716c-19.076,0-24.563-11.592-28.57-20.057
				c-3.338-7.053-4.923-9.521-9.595-9.521c-4.622,0-6.056,2.267-9.291,9.276c-3.951,8.565-9.363,20.295-29.278,20.295l-0.467-0.002
				c-23.409-0.215-26.922-17.941-28.811-27.465c-0.374-1.887-0.901-4.547-1.442-5.94c-1.014,1.22-2.34,4.431-3.18,6.466
				c-2.754,6.672-6.917,16.755-17.91,16.755c-1.368,0-2.81-0.167-4.285-0.496c-11.724-2.614-15.761-13.644-17.769-22.749
				c-1.654,6.479-4.712,13.017-12.226,13.017c-1.624,0-3.34-0.36-5.101-1.072c-15.603-6.307-15.307-33.602-15.112-51.663
				c0.018-1.67,0.035-3.224,0.035-4.621c-0.019-2.985,1.35-5.901,4.067-8.636c11.453-11.524,55.48-24.982,141.867-24.982
				c0.998,0,2.003,0.002,3.012,0.006c86.993,0.733,141.108,13.966,141.253,34.534c0,1.367,0.018,2.845,0.037,4.434
				c0.192,16.016,0.514,42.821-15.267,50.76c-2.076,1.044-4.102,1.573-6.021,1.574c-0.001,0-0.001,0-0.002,0
				c-6.101-0.002-9.259-4.493-11.099-9.852c-2.082,8.14-6.692,16.836-18.422,19.267c-1.647,0.342-3.243,0.516-4.742,0.516
				c-12.426,0-16.277-11.252-18.577-17.975c-0.517-1.511-1.223-3.572-1.858-4.872c-0.497,1.457-0.954,3.86-1.287,5.606
				c-1.918,10.072-5.128,26.931-29.04,27.389C197.186,232.713,196.881,232.716,196.577,232.716z"/>
			<path fill="#FFFFFF" d="M159.51,126.32c0.991,0,1.991,0.002,2.993,0.006c101.515,0.855,136.188,17.78,136.271,29.569
				c0,13.918,1.91,43.454-12.477,50.691c-1.429,0.719-2.677,1.041-3.775,1.041c-9.551,0-7.566-24.41-11.311-24.41
				c-0.159,0-0.329,0.044-0.51,0.136c-4.934,2.505,1.427,29.619-18.716,33.794c-1.352,0.28-2.59,0.411-3.728,0.411
				c-15.328,0-12.231-23.714-20.432-23.714c-0.253,0-0.518,0.022-0.793,0.069c-9.865,1.67,1.277,33.201-29.632,33.794
				c-0.279,0.005-0.552,0.008-0.825,0.008c-28.696,0-19.638-29.577-38.165-29.577c-18.616,0-8.665,29.571-38.569,29.571
				c-0.139,0-0.28-0.001-0.421-0.002c-30.418-0.278-19.561-33.237-29.632-33.794c-0.101-0.006-0.199-0.008-0.297-0.008
				c-9.077,0-7.619,23.617-21.459,23.617c-0.984,0-2.048-0.12-3.197-0.376c-17.47-3.896-13.166-33.516-18.715-33.794
				c-0.027-0.001-0.052-0.002-0.079-0.002c-4.958,0-2.378,23.943-12.29,23.943c-0.954,0-2.024-0.222-3.227-0.708
				c-13.771-5.566-11.951-37.018-11.951-51.648C18.503,143.362,63.26,126.32,159.51,126.32 M159.51,116.32
				c-73.476,0-129.195,10.139-145.414,26.458c-4.578,4.606-5.532,9.162-5.521,12.186c0,1.374-0.017,2.9-0.035,4.542
				c-0.21,19.42-0.528,48.767,18.238,56.353c2.359,0.953,4.706,1.437,6.975,1.437c2.325,0,7.198-0.591,11.315-4.965
				c3.23,6.63,8.51,12.552,17.592,14.577c1.832,0.409,3.64,0.616,5.374,0.616c4.544,0,11.078-1.434,16.401-8.266
				c1.225-1.571,2.243-3.237,3.126-4.919c1.096,3.692,2.691,7.585,5.261,11.142c5.783,8.006,14.702,12.119,26.509,12.228
				l0.512,0.002c23.115,0,29.815-14.522,33.818-23.2c2.939-6.371,3.287-6.371,4.75-6.371c1.478,0,1.924,0,5.076,6.659
				c4.057,8.572,10.847,22.918,33.089,22.918c0.335,0,0.672-0.003,1.017-0.01c11.964-0.229,20.958-4.34,26.732-12.218
				c2.218-3.027,3.703-6.291,4.76-9.464c0.521,0.908,1.096,1.803,1.732,2.669c4.266,5.8,10.297,8.865,17.441,8.865
				c1.839,0,3.776-0.209,5.757-0.619c8.085-1.676,14.416-6.209,18.463-13.182c3.788,3.371,7.933,3.87,10.043,3.87
				c2.708,0,5.49-0.709,8.269-2.107c18.571-9.343,18.226-38.103,18.02-55.287c-0.019-1.566-0.037-3.023-0.037-4.338v-0.035v-0.035
				c-0.086-12.147-12.694-21.724-37.475-28.464c-25.476-6.929-62.052-10.642-108.712-11.035
				C161.525,116.322,160.513,116.32,159.51,116.32L159.51,116.32z"/>
		</g>
		<g id="Ellipse_1_2_">
			<g>
				<ellipse fill-rule="evenodd" clip-rule="evenodd" fill="#423A31" cx="157.425" cy="157.4" rx="135.365" ry="29.069"/>
			</g>
		</g>
	</g>
</g>
<g id="strawberries_x5F_back">
	<g id="strawberry_x5F_4">
		<g>
			<path fill-rule="evenodd" clip-rule="evenodd" fill="#E37575" d="M247.063,124.33c-2.643-6.043-3.519-4.717-6.735,0
				c-3.218,4.717-5.511,4.131-1.685,10.983c3.827,6.854,8.42,4.707,8.42,4.707s3.156-0.561,6.735-4.707
				S249.706,130.374,247.063,124.33z"/>
		</g>
	</g>
	<g id="strawberry_x5F_3">
		<g>
			<path fill-rule="evenodd" clip-rule="evenodd" fill="#E07373" d="M192.916,118.313c-2.643-6.043-3.519-4.717-6.735,0
				c-3.218,4.718-5.511,4.131-1.685,10.983c3.827,6.854,8.42,4.708,8.42,4.708s3.156-0.561,6.735-4.708
				C203.23,125.15,195.559,124.357,192.916,118.313z"/>
		</g>
	</g>
	<g id="strawberry_x5F_2">
		<g>
			<path fill-rule="evenodd" clip-rule="evenodd" fill="#E17373" d="M126.736,120.319c-2.643-6.044-3.519-4.717-6.736,0
				s-5.511,4.131-1.684,10.983c3.827,6.853,8.419,4.707,8.419,4.707s3.156-0.561,6.735-4.707S129.378,126.362,126.736,120.319z"/>
		</g>
	</g>
	<g id="strawberry_x5F_1">
		<g>
			<path fill-rule="evenodd" clip-rule="evenodd" fill="#DF7272" d="M74.594,124.33c-2.643-6.043-3.519-4.717-6.736,0
				s-5.511,4.131-1.684,10.983c3.827,6.854,8.419,4.707,8.419,4.707s3.156-0.561,6.735-4.707S77.236,130.374,74.594,124.33z"/>
		</g>
	</g>
</g>
<g id="candles">
	<g id="candle_x5F_left">
		<g id="Ellipse_3">
			<g>
				<path fill-rule="evenodd" clip-rule="evenodd" fill="#519DC4" d="M97.003,68.721l-0.054,0.001
					c0.008-0.043,0.025-0.085,0.026-0.128c0.046-1.446-3.971-2.548-8.964-2.46c-4.985,0.088-9.06,1.328-9.108,2.771
					c-0.002,0.065,0.013,0.129,0.027,0.193l-2.711,80.315c-0.019,0.064-0.038,0.13-0.041,0.195
					c-0.049,1.465,3.033,4.802,8.056,4.788c4.911-0.013,9.842-3.211,10.119-4.73h0.054L97.003,68.721z"/>
			</g>
		</g>
		<g id="Form_22">
			<g>
				<path fill-rule="evenodd" clip-rule="evenodd" fill="#64BCE9" d="M96.262,68.162l-2.005-4.011l-10.027,2.005l-4.011,2.006
					c0,0-2.648,0.979,2.005,4.011c4.654,3.031,5.825,4.338,6.017,6.017s4.277-5.494,4.011-6.017S96.262,68.162,96.262,68.162z"/>
			</g>
		</g>
		<g id="Form_23">
			<g>
				<rect x="86.235" y="58.135" fill-rule="evenodd" clip-rule="evenodd" fill="#777777" width="2.005" height="10.027"/>
			</g>
		</g>
		<g id="Form_24_Kopie">
			<g>
				<path fill-rule="evenodd" clip-rule="evenodd" fill="#FFE0A4" d="M94.078,3.238c-1,1.636-1.565,3.566-1.854,5.638
					C94.507,3.797,96.112-0.089,94.078,3.238z M94.078,29.472c-0.565-5.076-2.823-13.664-1.854-20.596
					c-2.599,5.778-6.078,13.101-6.078,13.101s-8.674,17.082-7.933,26.232c1.698,20.973,18.333,16.045,19.831,0
					C99.193,35.904,94.812,36.063,94.078,29.472z"/>
			</g>
		</g>
		<g id="Form_24">
			<g>
				<path fill-rule="evenodd" clip-rule="evenodd" fill="#FEA6A6" d="M90.246,42.091c-0.286-2.716-1.428-7.312-0.938-11.021
					c-1.314,3.093-3.073,7.011-3.073,7.011s-4.386,9.142-4.011,14.038c0.859,11.223,9.27,8.586,10.027,0
					C92.832,45.533,90.617,45.619,90.246,42.091z M90.246,28.053c-0.506,0.876-0.792,1.909-0.938,3.017
					C90.463,28.353,91.274,26.272,90.246,28.053z"/>
			</g>
		</g>
	</g>
	<g id="candle_x5F_mid">
		<g id="Ellipse_3_Kopie">
			<g>
				<path fill-rule="evenodd" clip-rule="evenodd" fill="#519DC4" d="M172.282,61.475l-0.044,0.001
					c0.007-0.038,0.022-0.075,0.023-0.113c0.036-1.471-4.107-2.6-9.247-2.521c-5.13,0.078-9.314,1.329-9.353,2.795
					c-0.001,0.051,0.014,0.1,0.022,0.149l-2.154,81.736c-0.011,0.05-0.029,0.099-0.03,0.149c-0.04,1.488,3.768,4.716,8.938,4.715
					c5.073-0.001,9.56-3.097,9.777-4.628h0.043L172.282,61.475z"/>
			</g>
		</g>
		<g id="Form_22_Kopie">
			<g>
				<path fill-rule="evenodd" clip-rule="evenodd" fill="#64BCE9" d="M170.289,58.601l-10.19,0.847l-4.214,1.534
					c0,0-2.743,0.671,1.534,4.214c4.277,3.543,5.291,4.975,5.289,6.664c0,1.689,4.877-4.969,4.672-5.519
					c-0.204-0.55,4.443-3.526,4.443-3.526L170.289,58.601z"/>
			</g>
		</g>
		<g id="Form_23_Kopie">
			<g>
				<rect x="162.442" y="52.124" fill-rule="evenodd" clip-rule="evenodd" fill="#777777" width="2.006" height="10.027"/>
			</g>
		</g>
		<g id="Form_25_Kopie">
			<g>
				<path fill-rule="evenodd" clip-rule="evenodd" fill="#FFE0A4" d="M162.776,26.638c6.392-2.951,2.533-15.135,2.533-15.135
					l-8.744,21.874l-1.899,11.352c0,0,9.511,27.998,19.779,3.311C172.061,36.986,156.386,29.589,162.776,26.638z"/>
			</g>
		</g>
		<g id="Form_25">
			<g>
				<path fill-rule="evenodd" clip-rule="evenodd" fill="#FEA6A6" d="M162.442,38.086c2.326-2.073,0-8.022,0-8.022l-2.006,12.033
					v6.016c0,0,5.602,13.615,8.021,0C166.788,42.62,160.116,40.158,162.442,38.086z"/>
			</g>
		</g>
	</g>
	<g id="candle_x5F_right">
		<g id="Ellipse_3_Kopie_2">
			<g>
				<path fill-rule="evenodd" clip-rule="evenodd" fill="#519DC4" d="M238.662,67.438l-0.036,0.001
					c0.005-0.034,0.02-0.068,0.02-0.103c0.025-1.488-4.248-2.623-9.536-2.532c-5.277,0.09-9.571,1.365-9.599,2.85
					c0,0.035,0.013,0.069,0.017,0.104h0l-1.522,82.869c-0.005,0.035-0.02,0.068-0.02,0.104c-0.027,1.598,4.252,4.271,9.573,3.787
					c5.208-0.475,9.504-2.252,9.689-3.748h0.031L238.662,67.438z"/>
			</g>
		</g>
		<g id="Form_22_Kopie_2">
			<g>
				<path fill-rule="evenodd" clip-rule="evenodd" fill="#64BCE9" d="M236.47,64.611l-10.191,0.847l-4.214,1.534
					c0,0-2.742,0.671,1.534,4.214c4.277,3.543,5.291,4.975,5.29,6.664c-0.001,1.69,4.877-4.969,4.672-5.519
					c-0.204-0.55,4.443-3.526,4.443-3.526L236.47,64.611z"/>
			</g>
		</g>
		<g id="Form_23_Kopie_2">
			<g>
				<rect x="226.617" y="58.135" fill-rule="evenodd" clip-rule="evenodd" fill="#777777" width="2.005" height="10.027"/>
			</g>
		</g>
		<g id="Form_26_Kopie">
			<g>
				<path fill-rule="evenodd" clip-rule="evenodd" fill="#FFE0A4" d="M231.494,26.083c-4.067-5.994-9.674-16.079-9.674-16.079
					l3.225,32.159l-6.45,12.06c0,0,7.478,26.775,16.125,0C243.366,27.446,235.562,32.078,231.494,26.083z"/>
			</g>
		</g>
		<g id="Form_26">
			<g>
				<path fill-rule="evenodd" clip-rule="evenodd" fill="#FEA6A6" d="M230.628,40.086c-2.529-2.991-6.017-8.022-6.017-8.022
					l2.006,16.044l-4.011,6.017c0,0,4.649,13.357,10.027,0C238.011,40.766,233.157,43.076,230.628,40.086z"/>
			</g>
		</g>
	</g>
</g>
<g id="strawberries_x5F_front">
	<g id="strawberry_x5F_5">
		<g>
			<path fill-rule="evenodd" clip-rule="evenodd" fill="#DF7272" d="M48.131,144.375c-3.147-7.725-4.19-6.029-8.022,0
				c-3.832,6.029-6.563,5.279-2.005,14.038s10.027,6.017,10.027,6.017s3.759-0.717,8.022-6.017S51.278,152.1,48.131,144.375z"/>
		</g>
	</g>
	<g id="strawberry_x5F_4_1_">
		<g>
			<path fill-rule="evenodd" clip-rule="evenodd" fill="#DF7171" d="M99.782,156.819c-3.932-5.188-5.002-6.647-8.232,0
				c-3.23,6.648-12.607,7.521-8.232,12.082c4.375,4.562,8.232,5.178,8.232,5.178s5.613,2.36,10.291-5.178
				S103.714,162.009,99.782,156.819z"/>
		</g>
	</g>
	<g id="strawberry_x5F_3_1_">
		<g>
			<path fill-rule="evenodd" clip-rule="evenodd" fill="#E07373" d="M159.133,155.618c-3.23-7.856-4.3-6.132-8.232,0
				c-3.932,6.132-6.735,5.37-2.058,14.278c4.678,8.909,10.291,6.12,10.291,6.12s3.858-0.729,8.232-6.12
				S162.363,163.475,159.133,155.618z"/>
		</g>
	</g>
	<g id="strawberry_x5F_2_1_">
		<g>
			<path fill-rule="evenodd" clip-rule="evenodd" fill="#E07272" d="M227.318,157.222c-3.229-7.252-4.3-5.66-8.232,0
				c-3.932,5.66-6.735,4.957-2.058,13.18c4.677,8.224,10.29,5.649,10.29,5.649s3.858-0.673,8.232-5.649
				C239.926,165.426,230.549,164.474,227.318,157.222z"/>
		</g>
	</g>
	<g id="strawberry_x5F_1_1_">
		<g>
			<path fill-rule="evenodd" clip-rule="evenodd" fill="#E07272" d="M268.731,146.381c-3.147-7.725-4.189-6.029-8.021,0
				c-3.832,6.028-6.563,5.279-2.006,14.038s10.027,6.016,10.027,6.016s3.76-0.716,8.022-6.016S271.879,154.104,268.731,146.381z"/>
		</g>
	</g>
</g>
</svg>
