<?xml version="1.0" encoding="utf-8"?>
<!-- Generator: Adobe Illustrator 15.0.0, SVG Export Plug-In . SVG Version: 6.00 Build 0)  -->
<!DOCTYPE svg PUBLIC "-//W3C//DTD SVG 1.1//EN" "http://www.w3.org/Graphics/SVG/1.1/DTD/svg11.dtd">
<svg version="1.1" id="rockfirst" xmlns="http://www.w3.org/2000/svg" xmlns:xlink="http://www.w3.org/1999/xlink" x="0px" y="0px"
	 width="443.546px" height="471.812px" viewBox="-198.728 533.406 443.546 471.812"
	 enable-background="new -198.728 533.406 443.546 471.812" xml:space="preserve">
<g id="rect3813_1_">
	<path d="M-39.815,996.719c-5.098,0-10.289-2.27-14.245-6.225l-129.94-129.939c-7.567-7.57-8.381-18.616-1.85-25.148l41.611-41.61
		c2.82-2.821,6.692-4.377,10.901-4.377c5.097,0,10.29,2.271,14.246,6.226l129.94,129.938c3.297,3.297,5.444,7.479,6.05,11.773
		c0.72,5.11-0.812,9.985-4.201,13.376l-41.61,41.609C-31.735,995.164-35.606,996.719-39.815,996.719z"/>
	<path fill="#FFFFFF" d="M-133.338,797.919c2.733,0,5.789,1.289,8.236,3.735L4.837,931.593c4.138,4.138,4.963,10.015,1.85,13.129
		l-41.61,41.609c-1.271,1.271-3.005,1.887-4.892,1.887c-2.733,0-5.789-1.288-8.236-3.734l-129.939-129.939
		c-4.136-4.137-4.963-10.014-1.849-13.128l41.611-41.609C-136.958,798.534-135.224,797.919-133.338,797.919 M-133.338,780.919
		L-133.338,780.919c-6.48,0.001-12.488,2.439-16.915,6.867l-41.608,41.609c-5.296,5.295-7.703,12.793-6.607,20.57
		c0.86,6.109,3.863,12.005,8.455,16.598l129.939,129.939c5.541,5.539,12.925,8.715,20.258,8.715c6.479,0,12.484-2.438,16.911-6.865
		l41.61-41.61c5.295-5.294,7.703-12.792,6.608-20.57c-0.86-6.109-3.863-12.006-8.457-16.599l-129.939-129.939
		C-118.621,784.095-126.004,780.919-133.338,780.919L-133.338,780.919z"/>
</g>
<path id="rect3793_1_" stroke="#FFFFFF" stroke-width="17" stroke-linejoin="round" d="M110.149,552.128
	c-12.438-12.438-31.202-13.698-42.076-2.824L-38.036,655.411c-0.661,0.626-1.304,1.259-1.954,1.91l-61.196,61.197
	c-21.778,21.776-26.229,46.435,0.68,73.113L10.744,901.943c24.205,24.001,61.822,21.654,78.427,5.051l60.256-60.257
	c1.408-1.409,2.733-2.838,4.021-4.285l75.675-75.676c10.59-10.59,9.342-28.865-2.771-40.98l-3.471-3.469
	c-12.113-12.113-30.39-13.361-40.979-2.771l-72.812,72.812L21.566,690.212l93.711-93.71c10.873-10.874,9.613-29.638-2.825-42.075
	L110.149,552.128L110.149,552.128z"/>
<path id="rect2985-3_1_" stroke="#FFFFFF" stroke-width="17" stroke-linejoin="round" d="M79.891,679.386L79.891,679.386
	c13.039,13.036,14.829,32.387,4,43.217l-46.25,46.249c-10.829,10.83-30.179,9.039-43.218-4l0,0
	c-13.038-13.037-14.829-32.387-4-43.217l46.251-46.249C47.503,664.556,66.853,666.347,79.891,679.386z"/>
<path id="rect2985-2_1_" stroke="#FFFFFF" stroke-width="17" stroke-linejoin="round" d="M126.457,725.952l1.565,1.566
	c12.605,12.604,13.885,31.764,2.856,42.791L85.35,815.841c-11.028,11.028-30.188,9.75-42.793-2.855l-1.566-1.565
	c-12.605-12.605-13.885-31.766-2.857-42.794l45.531-45.529C94.692,712.066,113.852,713.347,126.457,725.952z"/>
<path id="rect2985-7_1_" stroke="#FFFFFF" stroke-width="14" stroke-linejoin="round" d="M77.132,747.358l-0.726,13.754
	c-0.833,15.791-14.329,28.551-30.145,28.496l-137.011-0.467c-15.813-0.056-27.959-12.9-27.125-28.693l0.726-13.752
	c0.834-15.793,14.33-28.553,30.145-28.498l137.011,0.467C65.821,718.72,77.965,731.565,77.132,747.358z"/>
</svg>
