<?xml version="1.0" encoding="utf-8"?>
<!-- Generator: Adobe Illustrator 15.0.0, SVG Export Plug-In . SVG Version: 6.00 Build 0)  -->
<!DOCTYPE svg PUBLIC "-//W3C//DTD SVG 1.1//EN" "http://www.w3.org/Graphics/SVG/1.1/DTD/svg11.dtd">
<svg version="1.1" id="rockfist" xmlns="http://www.w3.org/2000/svg" xmlns:xlink="http://www.w3.org/1999/xlink" x="0px" y="0px"
	 width="484.24px" height="517.505px" viewBox="-178.381 556.253 484.24 517.505"
	 enable-background="new -178.381 556.253 484.24 517.505" xml:space="preserve">
<path d="M-111.638,853.953c-2.54-2.67-6.019-4.248-9.7-4.4c-2.149-0.076-4.24,0.717-5.8,2.2l-49,49c-3.7,3.7-2.7,10.6,2.101,15.5
	l153.199,153.1c2.899,2.9,6.5,4.4,9.7,4.4c2.15,0.076,4.241-0.717,5.8-2.2l49-49c3.7-3.7,2.7-10.6-2.199-15.5L-111.638,853.953z
	 M118.162,789.351v-1.6c-0.162-12.729-10.471-22.992-23.199-23.1h-0.2l-161.601-0.602c-14.285,0.126-26.059,11.245-27,25.5
	l-0.8,16.3c-0.884,12.783,8.762,23.861,21.544,24.745c0.551,0.038,1.104,0.057,1.655,0.057h0.2l161.6,0.6
	c14.322-0.13,26.109-11.307,27-25.6l0.801-16.2 M94.762,747.651h0.2c11.199,0,21.399,4.602,28.699,12l5-5
	c4.443-4.715,6.535-11.175,5.7-17.6c-0.934-8.071-4.646-15.565-10.5-21.2c-6.188-6.539-14.702-10.382-23.7-10.7
	c-5.653-0.159-11.135,1.968-15.199,5.9l-36.301,36.3l46,0.2L94.762,747.651z M180.662,772.552l-1.899-1.8l-0.2-0.3
	c-5.826-5.896-13.713-9.304-22-9.5c-6.399,0-12,2.3-16.199,6.398l-7.399,7.4c1.772,5.034,2.521,10.372,2.199,15.7l-0.899,16.1
	c-1.2,23-20.899,41.7-43.899,41.7h-7.801c1.729,4.196,4.278,8.005,7.5,11.2l1.9,1.8c5.866,6.042,13.88,9.526,22.3,9.7
	c6.3,0,12-2.2,16-6.301l53.7-53.699C193.662,801.351,192.162,784.052,180.662,772.552L180.662,772.552z M305.762,789.953
	c-0.5-7-3.801-14-9.201-19.4l-4.1-4.1c-5.588-5.799-13.248-9.145-21.299-9.302c-5.635-0.105-11.076,2.057-15.102,6l-85.799,85.802
	c-0.5,0.5-1,0.898-1.601,1.198l-26.399,26.5c-7.487,7.36-17.603,11.429-28.101,11.302c-12.5,0-25-5.302-34.399-14.7l-1.8-1.8
	c-6.475-6.41-11.072-14.467-13.301-23.302l-129.699-0.5l119.399,118.5c12,12,28.199,18.5,45.399,18.5c14.101,0,27.3-4.698,35-12.5
	l71.101-71c1.615-1.618,3.184-3.286,4.699-5l89.202-89.198C304.166,802.445,306.362,796.225,305.762,789.953L305.762,789.953z
	 M162.262,568.552l-2.7-2.7l-0.199-0.2c-6-6-14-9.398-21.601-9.398c-4.399,0-10.601,1.1-15.8,6.3l-125,125l-0.2,0.2
	c-0.71,0.656-1.41,1.323-2.101,2l-57.199,57.398l87.199,0.302l29.301-29.302l1.199-1.5l110.5-110.5
	C175.061,596.752,173.561,579.851,162.262,568.552z"/>
</svg>
