<?xml version="1.0" encoding="utf-8"?>
<!-- Generator: Adobe Illustrator 15.0.0, SVG Export Plug-In . SVG Version: 6.00 Build 0)  -->
<!DOCTYPE svg PUBLIC "-//W3C//DTD SVG 1.1//EN" "http://www.w3.org/Graphics/SVG/1.1/DTD/svg11.dtd">
<svg version="1.1" id="Ebene_3" xmlns="http://www.w3.org/2000/svg" xmlns:xlink="http://www.w3.org/1999/xlink" x="0px" y="0px"
	 width="443.545px" height="471.812px" viewBox="-198.728 533.406 443.545 471.812"
	 enable-background="new -198.728 533.406 443.545 471.812" xml:space="preserve">
<g id="rect3813_2_">
	<path d="M-133.339,797.922c2.733,0,5.789,1.288,8.236,3.734L4.837,931.594c4.137,4.137,4.963,10.014,1.849,13.128l-41.61,41.61
		c-1.271,1.271-3.005,1.887-4.892,1.887c-2.733,0-5.789-1.289-8.236-3.735l-129.938-129.938c-4.137-4.137-4.963-10.014-1.85-13.128
		l41.611-41.61C-136.958,798.536-135.224,797.922-133.339,797.922 M-133.338,780.922L-133.338,780.922
		c-6.48,0-12.487,2.438-16.915,6.867l-41.608,41.607c-5.295,5.295-7.703,12.793-6.607,20.571c0.86,6.109,3.863,12.004,8.455,16.597
		l129.94,129.94c5.541,5.539,12.924,8.714,20.257,8.714c6.479,0,12.484-2.438,16.912-6.865l41.609-41.609
		c5.295-5.294,7.703-12.792,6.608-20.57c-0.86-6.11-3.863-12.006-8.457-16.599l-129.939-129.94
		C-118.62,784.097-126.004,780.922-133.338,780.922L-133.338,780.922z"/>
</g>
<g>
	<path d="M232.36,719.787l-3.47-3.469c-7.916-7.915-18.497-12.455-29.029-12.455c-9.213,0-17.726,3.439-23.971,9.684l-37.515,37.517
		c0.112,7.191-2.352,14.104-7.496,19.247l-27.926,27.928c1.521,1.59,3.597,2.541,5.808,2.627c2.374,0.091,4.664-0.809,6.337-2.483
		l72.812-72.813c3.889-3.889,8.645-4.705,11.95-4.705c6.058,0,12.257,2.725,17.009,7.477l3.468,3.468
		c8.747,8.749,9.991,21.74,2.771,28.96l-75.673,75.676c-0.117,0.117-0.23,0.238-0.341,0.362c-1.307,1.47-2.512,2.754-3.679,3.923
		l-60.256,60.257c-6.405,6.405-17.208,10.229-28.9,10.229c-14.249,0-27.578-5.436-37.532-15.305L-94.522,785.597
		c-10.668-10.577-16.088-20.968-16.109-30.884c-0.021-9.753,5.179-19.908,15.456-30.184l61.207-61.206
		c0.591-0.593,1.177-1.169,1.779-1.739c0.056-0.053,0.111-0.106,0.166-0.161L74.082,555.315c4.057-4.056,9.011-4.907,12.453-4.907
		c6.274,0,12.69,2.818,17.604,7.731l2.299,2.299c4.561,4.561,7.29,10.309,7.685,16.185c0.366,5.445-1.36,10.371-4.858,13.87
		l-93.711,93.71c-3.14,3.141-3.334,8.169-0.445,11.541l0.558,0.651l21.008-21.008c4.956-4.956,11.696-7.261,18.798-7.062
		l65.812-65.811c14.136-14.136,12.868-38.403-2.826-54.098l-2.299-2.299c-8.078-8.077-18.875-12.71-29.624-12.71
		c-9.405,0-18.097,3.511-24.473,9.886L-43.966,649.323c-0.69,0.655-1.363,1.317-2.033,1.989l-61.197,61.196
		c-13.59,13.59-20.466,27.802-20.435,42.241c0.031,14.604,7.144,29.043,21.14,42.92L4.76,907.981
		c13.159,13.047,30.739,20.232,49.501,20.232c16.34,0,31.255-5.543,40.92-15.207l60.26-60.262c1.354-1.355,2.726-2.813,4.189-4.454
		l75.5-75.503C248.978,758.94,247.735,735.165,232.36,719.787z"/>
</g>
<path d="M99.305,701.041c-0.938-10.135-5.698-19.959-13.404-27.664c-8.625-8.625-20.022-13.571-31.268-13.571
	c-9.284,0-17.797,3.399-23.969,9.571l-46.25,46.25c-0.896,0.896-1.727,1.836-2.495,2.813l23.643,0.08l37.123-37.122
	c3.796-3.796,8.593-4.593,11.949-4.593c6.771,0,13.787,3.132,19.248,8.593c4.906,4.905,7.924,11.018,8.497,17.209
	c0.518,5.602-1.079,10.568-4.498,13.986l-9.9,9.9c4.27,4.231,7.101,9.887,7.801,16.24l14.12-14.119
	C96.958,721.558,100.298,711.765,99.305,701.041z"/>
<path d="M146.795,748.94c-0.677-10.137-5.209-19.879-12.764-27.434l-1.564-1.562c-8.165-8.166-19.107-12.849-30.021-12.849
	c-9.544,0-18.349,3.548-24.792,9.991l-8.938,8.938c4.344,4.095,7.293,9.621,8.176,15.866l12.783-12.783
	c4.142-4.143,9.231-5.012,12.771-5.012c6.439,0,13,2.868,18.002,7.871l1.564,1.563c4.64,4.641,7.417,10.516,7.82,16.543
	c0.374,5.601-1.389,10.652-4.963,14.227l-45.53,45.532c-3.233,3.233-7.77,5.014-12.773,5.014c-6.439,0-12.999-2.868-18.001-7.871
	l-1.564-1.562c-4.593-4.594-7.219-10.3-7.77-15.825l-17.006-0.058c0.54,9.896,4.832,19.979,12.757,27.905l1.564,1.562
	c8.165,8.165,19.106,12.849,30.021,12.849c9.544,0,18.349-3.549,24.794-9.992l45.53-45.532
	C143.983,769.229,147.5,759.506,146.795,748.94z"/>
<g>
	<path d="M46.364,798.111h-0.13l-137.011-0.468c-10-0.034-19.217-3.979-25.955-11.106c-6.737-7.127-10.157-16.55-9.63-26.534
		l0.726-13.752c1.064-20.153,18.349-36.55,38.53-36.55h0.133l137.011,0.467c9.997,0.034,19.213,3.978,25.951,11.104
		c6.738,7.127,10.16,16.552,9.634,26.537l-0.728,13.756C83.832,781.716,66.548,798.111,46.364,798.111z M-87.032,726.701
		c-11.363,0-21.032,9.172-21.627,20.446l-0.726,13.752c-0.279,5.291,1.499,10.248,5.007,13.959c3.509,3.713,8.36,5.767,13.659,5.785
		l137.083,0.468c11.291,0,20.959-9.171,21.553-20.443l0.728-13.756c0.279-5.29-1.5-10.249-5.01-13.962
		c-3.509-3.711-8.358-5.765-13.655-5.782L-87.032,726.701z"/>
</g>
</svg>
