<?xml version="1.0" encoding="utf-8"?>
<!-- Generator: Adobe Illustrator 15.0.0, SVG Export Plug-In . SVG Version: 6.00 Build 0)  -->
<!DOCTYPE svg PUBLIC "-//W3C//DTD SVG 1.1//EN" "http://www.w3.org/Graphics/SVG/1.1/DTD/svg11.dtd">
<svg version="1.1"
	 id="svg2" inkscape:version="0.48.2 r9819" xmlns:inkscape="http://www.inkscape.org/namespaces/inkscape" xmlns:cc="http://creativecommons.org/ns#" xmlns:sodipodi="http://sodipodi.sourceforge.net/DTD/sodipodi-0.dtd" sodipodi:docname="rockfist.svg" xmlns:rdf="http://www.w3.org/1999/02/22-rdf-syntax-ns#" xmlns:dc="http://purl.org/dc/elements/1.1/" xmlns:svg="http://www.w3.org/2000/svg"
	 xmlns="http://www.w3.org/2000/svg" xmlns:xlink="http://www.w3.org/1999/xlink" x="0px" y="0px" width="472.735px"
	 height="505.117px" viewBox="-184.133 550.058 472.735 505.117" enable-background="new -184.133 550.058 472.735 505.117"
	 xml:space="preserve">
<path id="rect3813" fill="#FFFFFF" stroke="#000000" stroke-width="17.5" stroke-linejoin="round" d="M-111.448,852.347
	L18.491,982.287c4.137,4.136,4.601,10.376,1.037,13.938l-47.6,47.602c-3.562,3.562-9.804,3.098-13.939-1.038l-129.938-129.939
	c-4.137-4.136-4.601-10.377-1.038-13.938l47.601-47.602C-121.824,847.748-115.584,848.212-111.448,852.347z"/>
<path id="rect3793" fill="#7BCAFF" stroke="#000000" stroke-width="17.5" stroke-linejoin="round" d="M158.69,567.932
	c-12.438-12.438-32.462-12.438-44.901,0L-7.592,689.313c-0.753,0.718-1.487,1.443-2.23,2.188l-70.007,70.005
	c-24.912,24.912-31.457,51.664-4.533,78.327L26.956,950.077c24.222,23.986,64.713,18.765,83.708-0.23l68.93-68.929
	c1.609-1.611,3.134-3.238,4.618-4.885l86.565-86.565c12.115-12.114,12.092-31.616-0.02-43.73l-3.471-3.469
	c-12.113-12.114-31.616-12.136-43.73-0.021l-83.293,83.294l-86.473-103.21l107.198-107.199c12.438-12.438,12.438-32.462,0-44.901
	L158.69,567.932L158.69,567.932z"/>
<path id="rect2985-3" fill="#7BCAFF" stroke="#000000" stroke-width="17.5" stroke-linejoin="round" d="M117.096,706.525
	L117.096,706.525c13.039,13.039,13.565,33.651,1.178,46.039l-52.907,52.907c-12.388,12.388-33,11.861-46.039-1.178l0,0
	C6.29,791.256,5.763,770.642,18.15,758.255l52.908-52.907C83.445,692.96,104.057,693.487,117.096,706.525z"/>
<path id="rect2985-2" fill="#7BCAFF" stroke="#000000" stroke-width="17.5" stroke-linejoin="round" d="M163.663,753.093
	l1.565,1.566c12.605,12.605,12.599,33.052-0.018,45.667l-52.085,52.084c-12.614,12.614-33.061,12.622-45.667,0.017l-1.564-1.565
	c-12.606-12.605-12.599-33.052,0.017-45.668l52.084-52.084C130.61,740.494,151.057,740.486,163.663,753.093z"/>
<path id="rect2985-7" fill="#7BCAFF" stroke="#000000" stroke-width="17.5106" stroke-linejoin="round" d="M93.175,795.664
	l-0.727,13.752c-0.833,15.792-14.329,28.551-30.144,28.497l-137.012-0.468c-15.813-0.054-27.959-12.899-27.125-28.692l0.727-13.752
	c0.833-15.793,14.329-28.553,30.144-28.498l137.012,0.467C81.862,767.025,94.008,779.871,93.175,795.664z"/>
</svg>
