<?xml version="1.0" encoding="utf-8"?>
<!-- Generator: Adobe Illustrator 15.0.0, SVG Export Plug-In . SVG Version: 6.00 Build 0)  -->
<!DOCTYPE svg PUBLIC "-//W3C//DTD SVG 1.1//EN" "http://www.w3.org/Graphics/SVG/1.1/DTD/svg11.dtd">
<svg version="1.1" id="pig" xmlns="http://www.w3.org/2000/svg" xmlns:xlink="http://www.w3.org/1999/xlink" x="0px" y="0px"
	 width="487.753px" height="505.86px" viewBox="0 0 487.753 505.86" enable-background="new 0 0 487.753 505.86"
	 xml:space="preserve">
<g id="shadow_2_" opacity="0.25">
	<g>
		
			<ellipse transform="matrix(0.9945 -0.1048 0.1048 0.9945 -45.4185 28.3189)" fill-rule="evenodd" clip-rule="evenodd" fill="#6C6B6C" cx="246.7" cy="446.245" rx="184.254" ry="56.695"/>
	</g>
</g>
<g id="pig_1_">
	<path id="tail" fill-rule="evenodd" clip-rule="evenodd" fill="#966C81" d="M480.072,157.387c-11.91,6.521-20.301,8.29-27.131,7.56
		c-0.029,0-0.049-0.01-0.08-0.01c0,0,0.836-0.116,3.75-4.199c2.916-4.084-1.652-11.426-6.199-11.24
		c-4.549,0.185-8.021-0.755-9.85,2.66c-1.828,3.414-4.16,12.039-1.561,13.52c0.539,0.311,1.289,0.689,2.16,1.109
		c-6.051,3.49-13.301,8.07-14.689,10.671c-2.471,4.61-0.24,6.909,2.68,6.59s15.699-10.14,15.699-10.14l3.59-4.021
		c1.35,0.511,2.52,0.91,3.25,1.07c14.08,3.18,11.131,2.579,33.49-5.64C490.027,163.612,487.84,154.237,480.072,157.387z
		 M446.852,163.597c-2.49-0.9-3.609-1.859-3.609-1.859c0-0.141,0.02-7.51,4.029-7.66
		C456.777,155.278,448.662,162.627,446.852,163.597z"/>
	<g id="body">
		<path fill-rule="evenodd" clip-rule="evenodd" fill="#FDA5D1" d="M255.806,490.296c-6.804,0-11.025-2.02-12.906-6.176
			c-0.172-0.381-0.221-0.807-0.139-1.215c4.479-22.414,6.138-48.264,6.727-66.717c-3.69,0.148-7.437,0.223-11.164,0.223
			c-44.431,0-80.714-10.551-93.554-14.814c-11.587,47.977-30.044,72.303-54.874,72.303l-0.458-0.002
			c-6.884-0.084-20.2-4.619-20.436-11.482c-0.02-0.574,0.209-1.127,0.623-1.52c2.562-3.811,7.939-45.916,13.419-105.066
			c-8.971-11.045-15.099-22.697-18.227-34.658c-1.301-1.068-2.686-2.238-4.215-3.561c-0.065-0.057-0.127-0.117-0.184-0.182
			c-33.16-37.193-47.882-78.521-43.762-122.848c-6.028-23.13-15.83-65.808-14.543-94.414c1.574-26.092,5.129-42.725,8.267-57.399
			c2.597-12.149,4.84-22.644,5.454-35.993c0.016-0.338,0.117-0.666,0.294-0.955C17.663,3.321,20.176,2,23.395,2
			c19.144,0,65.491,48.581,81.377,73.611c16.081-3.48,41.213-7.473,71.86-7.473c17.571,0,35.208,1.315,52.423,3.911
			c0.354-0.042,0.738-0.076,1.174-0.113c2.994-0.258,8.567-0.737,24.95-6.294c10.27-3.485,19.812-7.168,29.04-10.729
			c23.878-9.214,44.5-17.171,67.167-17.806c0.019-0.001,0.037-0.002,0.056-0.002c0.726,0,1.396,0.393,1.748,1.029
			c6.841,12.318-1.819,35.234-10.989,59.495c-4.434,11.732-9.019,23.862-11.386,34.056c-0.074,2.268-0.185,4.484-0.331,6.619
			c0.508-0.042,1.016-0.083,1.521-0.123c2.669-0.21,5.525-0.316,8.487-0.316c34.285,0,82.871,13.647,108.521,43.611
			c15.16,17.707,20.93,39.011,17.154,63.32c0,0.01-0.115,0.791-0.123,0.832l-0.031,0.163c-0.615,2.864-1.203,5.675-1.762,8.476
			c-0.006,0.045-0.016,0.102-0.031,0.161c-5.061,25.29-8.52,50.034-11.572,71.866c-8.289,59.285-14.277,102.121-43.628,103.408
			c-0.317,0.016-0.677,0.023-1.062,0.023c-4.433,0-21.536-1.537-24.229-9.066c-0.147-0.412-0.156-0.861-0.023-1.277
			c5.181-16.365,8.129-37.07,8.221-57.42c-22.904,19.67-49.03,34.197-77.741,43.227c-2.221,46.326-13.674,73.221-34.996,82.209
			c-0.19,0.08-0.393,0.131-0.598,0.15c-2.689,0.242-5.636,0.709-8.755,1.205C265.075,489.513,260.15,490.296,255.806,490.296z"/>
		<path fill="#966C81" d="M23.395,3.999c17.77,0,64.114,47.279,80.427,73.867c18.646-4.133,43.697-7.728,72.81-7.728
			c16.324,0,33.92,1.13,52.39,3.929c0.01,0,0.01,0,0.02,0c2.771-0.381,7.351,0.06,26.78-6.531
			c36.65-12.439,64.561-27.559,95.62-28.43c9.729,17.521-15.67,62.121-22.62,92.32c-0.1,3.17-0.27,6.189-0.51,9.07
			c1.28-0.11,2.57-0.221,3.85-0.32c2.609-0.205,5.402-0.311,8.331-0.311c48.233-0.004,135.587,28.422,123.689,104.69v0.011
			c-0.029,0.229-0.07,0.449-0.1,0.68c-0.01,0.05-0.02,0.109-0.029,0.16c-0.611,2.84-1.201,5.66-1.762,8.47
			c-0.01,0.04-0.01,0.069-0.02,0.101c-18.379,91.818-15.08,172.049-53.339,173.729c-0.296,0.014-0.623,0.021-0.975,0.021
			c-6.16,0-20.359-2.188-22.346-7.74c6.39-20.18,8.59-43.4,8.29-62.41c-25.99,23.199-54.02,37.619-81.65,46.119
			c-1.369,31.43-7.27,70.66-33.84,81.861c-6.941,0.625-15.662,2.738-22.605,2.738c-5.169,0-9.352-1.172-11.084-5
			c4.569-22.859,6.26-49.158,6.83-69.199c-4.479,0.215-8.899,0.314-13.229,0.314c-46.446,0-83.476-11.426-94.992-15.414
			c-14.541,62.176-37.127,72.902-53.436,72.902c-0.146,0-0.29,0-0.434-0.002c-6.66-0.08-18.289-4.576-18.46-9.551
			c4.27-3.471,12.18-86.26,14.11-107.15c-9.45-11.469-15.52-23.27-18.52-35.16c-1.56-1.27-3.12-2.59-4.68-3.939
			c-37.42-41.971-46.75-84.689-43.23-121.68c-6.48-24.811-15.83-66.15-14.57-94.16c2.86-47.4,12.35-63.58,13.72-93.391
			C19.042,4.896,20.948,3.999,23.395,3.999 M23.395,0c-3.894,0-7.08,1.694-8.971,4.772c-0.354,0.577-0.557,1.234-0.587,1.91
			c-0.606,13.186-2.833,23.604-5.412,35.666c-3.151,14.744-6.724,31.456-8.305,57.668c-0.001,0.02-0.002,0.04-0.003,0.061
			c-1.229,27.338,7.171,66.432,14.518,94.67c-1.852,20.438,0.334,40.572,6.5,59.86c7.198,22.515,19.913,44.099,37.792,64.151
			c0.115,0.129,0.238,0.25,0.369,0.363c1.348,1.166,2.586,2.215,3.756,3.184c3.187,11.787,9.211,23.262,17.928,34.146
			c-5.269,56.74-10.458,97.951-13.003,103.279c-0.653,0.758-1.006,1.738-0.971,2.754c0.292,8.506,14.957,13.322,22.409,13.412
			c0.162,0.002,0.321,0.002,0.482,0.002c11.419,0,21.627-4.859,30.341-14.445c10.684-11.754,19.411-31.016,25.962-57.289
			c14.46,4.637,49.587,14.246,92.125,14.246c3.03,0,6.075-0.049,9.094-0.146c-0.646,18.199-2.334,42.818-6.618,64.248
			c-0.163,0.82-0.066,1.67,0.278,2.434c2.207,4.877,7.163,7.35,14.729,7.35c4.502,0,9.506-0.797,14.345-1.564
			c3.085-0.492,5.998-0.955,8.619-1.191c0.411-0.035,0.814-0.137,1.195-0.297c12.994-5.479,22.622-17.518,28.617-35.783
			c4.073-12.41,6.542-27.738,7.531-46.785c27.054-8.689,51.815-22.244,73.749-40.357c-0.458,18.725-3.311,37.447-8.064,52.463
			c-0.264,0.832-0.247,1.73,0.047,2.553c1.364,3.814,5.396,6.584,12.325,8.467c5.238,1.424,10.7,1.928,13.787,1.928
			c0.421,0,0.812-0.008,1.165-0.025c19.229-0.844,27.366-18.807,31.811-32.246c6.072-18.35,9.605-43.621,13.695-72.885
			c3.049-21.801,6.504-46.508,11.551-71.736c0.02-0.086,0.033-0.16,0.043-0.217c0.514-2.572,1.082-5.311,1.74-8.371
			c0.006-0.022,0.01-0.045,0.014-0.068l0.029-0.154c0.016-0.082,0.031-0.174,0.041-0.256c0.012-0.082,0.023-0.163,0.037-0.244
			c0.021-0.145,0.045-0.288,0.064-0.436c0-0.006,0.002-0.012,0.002-0.018c3.859-24.9-2.068-46.732-17.617-64.896
			c-26.062-30.443-75.307-44.309-110.033-44.309c-2.739,0-5.384,0.09-7.878,0.266c0.075-1.37,0.137-2.767,0.185-4.183
			c2.351-10.024,6.881-22.013,11.265-33.61c9.338-24.708,18.158-48.045,10.867-61.174c-0.707-1.272-2.047-2.059-3.496-2.059
			c-0.038,0-0.075,0.001-0.113,0.002c-23.01,0.645-43.78,8.66-67.831,17.939c-9.209,3.554-18.731,7.229-28.963,10.701
			c-16.152,5.479-21.568,5.945-24.479,6.195c-0.33,0.028-0.649,0.056-0.962,0.088c-17.232-2.584-34.88-3.894-52.463-3.894
			c-29.972,0-54.705,3.798-70.923,7.228c-8.595-13.244-23.518-30.7-38.791-45.295C53.517,15.265,35.089,0,23.395,0L23.395,0z"/>
	</g>
	<g id="body_x5F_shadow" opacity="0.75">
		<g id="leg_x5F_front_x5F_left_2_">
			<g>
				<path fill-rule="evenodd" clip-rule="evenodd" fill="#EB91BE" d="M110.099,347.229l-24.554,3.217
					c0,0-9.653,107.926-14.543,111.904c-0.022,4.84,11.804,9.471,18.456,9.547c17.403,0.199,42.211-11.572,56.638-85.846
					C152.08,355.247,110.099,347.229,110.099,347.229z"/>
			</g>
		</g>
		<g id="body_2_">
			<g>
				<path fill-rule="evenodd" clip-rule="evenodd" fill="#EB91BE" d="M440.68,175.683c8.523,88.355-82.374,165.584-180.45,116.146
					c-60.535,27.871-122.42,7.908-195.592,3.611c-3.153,35.506,18.979,71.693,74.961,102.195c0,0,175.353,69.27,285.5-73.766
					C480.812,251.526,471.254,204.2,440.68,175.683z"/>
			</g>
		</g>
		<g id="leg_x5F_front_x5F_right_2_">
			<g>
				<path fill-rule="evenodd" clip-rule="evenodd" fill="#EB91BE" d="M251.634,382.212c0,0,1.922,56.941-6.911,101.084
					c4.059,8.967,21.575,3.352,33.693,2.264c42.528-17.938,32.1-107.652,34.882-122.277
					C316.082,348.655,251.634,382.212,251.634,382.212z"/>
			</g>
		</g>
		<g id="leg_x5F_back_x5F_right_2_">
			<g>
				<path fill-rule="evenodd" clip-rule="evenodd" fill="#EB91BE" d="M420.013,273.722c0,0-33.127,41.621-32.884,46.611
					c7.263,6.541,11.288,59.199-1.514,99.65c2.096,5.869,17.842,7.98,23.312,7.719c39.557-1.73,34.692-87.389,55.274-183.014
					C460.031,212.88,420.013,273.722,420.013,273.722z"/>
			</g>
		</g>
		<g id="ear_x5F_left_1_">
			<g>
				<path fill-rule="evenodd" clip-rule="evenodd" fill="#EB91BE" d="M104.478,84.292C49.676,70.028,29.807-12.644,17.833,6.862
					c-1.369,29.814-10.86,45.996-13.717,93.391c-0.337,48.203,14.613,90.215,14.613,90.215S11.51,82.806,104.478,84.292z"/>
			</g>
		</g>
		<g id="face_1_">
			<g>
				<path fill-rule="evenodd" clip-rule="evenodd" fill="#EB91BE" d="M292.918,208.46c-33.356,59.111-50.554,96.85-128.945,39.594
					c-16.601-18.068-56.649-14.371-88.441,2.795c-48.184,37.607-55.872-18.17-55.403-67.482
					c-6.57,39.379,0.573,86.516,41.787,132.732c93.305,80.803,180.158,17.363,216.718-17.162
					C296.337,281.839,300.376,245.909,292.918,208.46z"/>
			</g>
		</g>
		<g id="ear_x5F_right_Kopie_2_">
			<g>
				<path fill-rule="evenodd" clip-rule="evenodd" fill="#EB91BE" d="M351.441,39.104c-55.272,1.545-46.033,43.707-122.307,43.904
					c43.687,12.492,49.367,43.02,55.698,53.816c31.308,76.738,39.635,23.273,43.988-5.396
					C335.774,101.224,361.175,56.632,351.441,39.104z"/>
			</g>
		</g>
	</g>
	<g id="body_x5F_inner">
		<g id="leg_x5F_left">
			<g>
				<path fill-rule="evenodd" clip-rule="evenodd" fill="#966C81" d="M87.627,450.259c-0.294-0.494-0.465-0.369-1.418-0.143
					c-1.222,15.893-1.717,13.576-5.128,20.98c0.995,0.105,1.995,1.412,2.595,1.318C88.874,459.983,88.116,457.644,87.627,450.259z"
					/>
			</g>
		</g>
		<g id="leg_x5F_middle">
			<g>
				<path fill-rule="evenodd" clip-rule="evenodd" fill="#966C81" d="M262.719,467.04c-0.333-0.467-0.493-0.33-1.425-0.025
					c0.09,15.939-0.595,13.672-3.386,21.332c1.001,0.023,2.104,1.242,2.694,1.102C264.761,476.63,263.813,474.36,262.719,467.04z"/>
			</g>
		</g>
		<g id="leg_x5F_right">
			<g>
				<path fill-rule="evenodd" clip-rule="evenodd" fill="#966C81" d="M404.007,406.229c-2.384,15.76-2.708,13.412-6.654,20.547
					c0.985,0.18,1.887,1.557,2.491,1.508c6.096-12.02,5.512-14.406,5.566-21.809C405.154,405.962,404.975,406.073,404.007,406.229z"
					/>
			</g>
		</g>
	</g>
	<g id="face_3_">
		<g id="mouth">
			<g>
				<path fill-rule="evenodd" clip-rule="evenodd" fill="#966C81" d="M134.485,309.021c-19.002-1.783-33.957-11.062-36.704-7.104
					c2.075,9.045,25.631,14.701,39.235,14.771c13.604,0.068,38.665-0.605,40.12-9.199
					C178.35,303.093,153.487,310.802,134.485,309.021z"/>
			</g>
		</g>
		<g id="nose">
			<g id="nose_2_">
				<g>
					<path fill-rule="evenodd" clip-rule="evenodd" fill="#D479A6" d="M117.76,226.116c-26.447-1.551-44.517,8.531-44.367,29.115
						c-3.422,26.934,31.854,27.189,44.196,26.953c12.341-0.238,45.038,8.637,50.273-19.605
						C168.134,232.138,144.207,227.669,117.76,226.116z"/>
				</g>
			</g>
			<g id="nose_x5F_left">
				<g>
					
						<ellipse transform="matrix(0.0615 -0.9981 0.9981 0.0615 -163.8297 342.3096)" fill-rule="evenodd" clip-rule="evenodd" fill="#966C81" cx="100.111" cy="258.272" rx="10.543" ry="7.252"/>
				</g>
			</g>
			<g id="nose_x5F_right">
				<g>
					
						<ellipse transform="matrix(0.0615 -0.9981 0.9981 0.0615 -134.4017 377.7368)" fill-rule="evenodd" clip-rule="evenodd" fill="#966C81" cx="133.673" cy="260.341" rx="10.543" ry="7.251"/>
				</g>
			</g>
			<g id="nose_x5F_shadow_1_">
				<g>
					<path fill-rule="evenodd" clip-rule="evenodd" fill="#966C81" d="M146.682,213.437c-0.459-4.154-12.109-5.922-18.445-6.676
						s-17.447,0.562-18.644,4.727c1.179,2.033,8.377-1.496,17.27-1.242S147.136,215.589,146.682,213.437z"/>
				</g>
			</g>
			<g id="nose_x5F_shadow">
				<g>
					<path fill-rule="evenodd" clip-rule="evenodd" fill="#966C81" d="M161.565,197.44c-0.581-4.152-15.336-5.922-23.36-6.674
						c-8.023-0.754-22.096,0.562-23.61,4.725c1.492,2.035,10.609-1.494,21.871-1.24S162.139,199.593,161.565,197.44z"/>
				</g>
			</g>
		</g>
		<g id="eye_x5F_left">
			<g>
				<circle fill-rule="evenodd" clip-rule="evenodd" fill="#966C81" cx="78.476" cy="169.888" r="12.62"/>
			</g>
		</g>
		<g id="eye_x5F_right">
			<g>
				<circle fill-rule="evenodd" clip-rule="evenodd" fill="#966C81" cx="210.781" cy="173.657" r="12.62"/>
			</g>
		</g>
	</g>
</g>
</svg>
