<?xml version="1.0" encoding="utf-8"?>
<!-- Generator: Adobe Illustrator 15.0.0, SVG Export Plug-In . SVG Version: 6.00 Build 0)  -->
<!DOCTYPE svg PUBLIC "-//W3C//DTD SVG 1.1//EN" "http://www.w3.org/Graphics/SVG/1.1/DTD/svg11.dtd">
<svg version="1.1" id="pig" xmlns="http://www.w3.org/2000/svg" xmlns:xlink="http://www.w3.org/1999/xlink" x="0px" y="0px"
	 width="487.753px" height="492.295px" viewBox="0 0 487.753 492.295" enable-background="new 0 0 487.753 492.295"
	 xml:space="preserve">
<path id="tail_2_" fill-rule="evenodd" clip-rule="evenodd" d="M480.077,157.39c-11.91,6.52-20.301,8.289-27.131,7.56
	c-0.029,0-0.049-0.01-0.08-0.01c0,0,0.836-0.116,3.75-4.2c2.916-4.084-1.652-11.426-6.199-11.24c-4.549,0.186-8.021-0.754-9.85,2.66
	s-4.16,12.04-1.561,13.52c0.539,0.311,1.289,0.69,2.16,1.11c-6.051,3.49-13.301,8.07-14.689,10.671
	c-2.471,4.609-0.24,6.909,2.68,6.59c2.92-0.32,15.699-10.141,15.699-10.141l3.59-4.02c1.35,0.51,2.52,0.91,3.25,1.07
	c14.08,3.18,11.131,2.579,33.49-5.641C490.032,163.614,487.845,154.239,480.077,157.39z M446.856,163.599
	c-2.49-0.899-3.609-1.859-3.609-1.859c0-0.141,0.02-7.51,4.029-7.66C456.782,155.28,448.667,162.63,446.856,163.599z"/>
<g id="body_2_">
	<path fill-rule="evenodd" clip-rule="evenodd" fill="#FFFFFF" d="M255.812,490.298c-6.804,0-11.025-2.02-12.906-6.175
		c-0.172-0.381-0.221-0.807-0.139-1.216c4.479-22.413,6.138-48.263,6.727-66.716c-3.69,0.147-7.437,0.222-11.164,0.222
		c-44.431,0.001-80.714-10.55-93.554-14.814c-11.587,47.978-30.044,72.303-54.874,72.304l-0.458-0.003
		c-6.884-0.083-20.2-4.618-20.436-11.481c-0.02-0.574,0.209-1.127,0.623-1.52c2.562-3.811,7.939-45.916,13.419-105.067
		c-8.971-11.044-15.099-22.696-18.227-34.658c-1.301-1.068-2.686-2.238-4.215-3.561c-0.065-0.057-0.127-0.117-0.184-0.182
		c-33.16-37.192-47.882-78.52-43.762-122.848c-6.028-23.129-15.83-65.807-14.543-94.414c1.574-26.092,5.129-42.725,8.267-57.398
		c2.597-12.15,4.84-22.644,5.454-35.993c0.016-0.338,0.117-0.667,0.294-0.955c1.535-2.499,4.048-3.819,7.267-3.819
		c19.144,0,65.491,48.58,81.377,73.611c16.081-3.48,41.213-7.473,71.86-7.473c17.571,0,35.208,1.315,52.423,3.91
		c0.354-0.041,0.738-0.075,1.174-0.112c2.994-0.258,8.567-0.737,24.95-6.294c10.27-3.486,19.812-7.168,29.04-10.729
		c23.878-9.215,44.5-17.172,67.167-17.807c0.019,0,0.037-0.001,0.056-0.001c0.726,0,1.396,0.393,1.748,1.028
		c6.841,12.318-1.819,35.234-10.989,59.496c-4.434,11.732-9.019,23.862-11.386,34.055c-0.074,2.268-0.185,4.484-0.331,6.619
		c0.508-0.041,1.016-0.082,1.521-0.123c2.669-0.209,5.525-0.316,8.487-0.316c34.285,0,82.87,13.648,108.521,43.611
		c15.16,17.707,20.93,39.012,17.154,63.321c0,0.01-0.115,0.79-0.123,0.831l-0.031,0.164c-0.615,2.863-1.203,5.674-1.762,8.475
		c-0.006,0.046-0.016,0.102-0.031,0.162c-5.061,25.29-8.52,50.033-11.572,71.865c-8.289,59.285-14.277,102.121-43.628,103.409
		c-0.317,0.015-0.677,0.023-1.062,0.023c-4.433,0-21.536-1.538-24.229-9.067c-0.147-0.412-0.156-0.86-0.023-1.277
		c5.181-16.364,8.129-37.069,8.221-57.419c-22.904,19.669-49.03,34.197-77.741,43.226c-2.221,46.326-13.674,73.222-34.996,82.21
		c-0.19,0.08-0.393,0.131-0.598,0.149c-2.689,0.242-5.636,0.71-8.755,1.206C265.08,489.515,260.155,490.298,255.812,490.298z"/>
	<path d="M23.4,4.002c17.77,0,64.114,47.278,80.427,73.867c18.646-4.133,43.697-7.728,72.81-7.728c16.324,0,33.92,1.129,52.39,3.928
		c0.01,0,0.01,0,0.02,0c2.771-0.38,7.351,0.061,26.78-6.53c36.65-12.44,64.561-27.56,95.62-28.43
		c9.729,17.521-15.67,62.12-22.62,92.319c-0.1,3.17-0.27,6.19-0.51,9.07c1.28-0.109,2.57-0.22,3.85-0.32
		c2.609-0.205,5.402-0.311,8.331-0.311c48.233-0.003,135.587,28.423,123.688,104.691v0.01c-0.029,0.23-0.07,0.449-0.1,0.68
		c-0.01,0.051-0.02,0.11-0.029,0.16c-0.611,2.84-1.201,5.66-1.762,8.471c-0.01,0.039-0.01,0.069-0.02,0.1
		c-18.379,91.819-15.08,172.05-53.339,173.729c-0.296,0.014-0.623,0.021-0.975,0.021c-6.16,0-20.359-2.188-22.346-7.741
		c6.39-20.18,8.59-43.4,8.29-62.41c-25.99,23.2-54.02,37.62-81.65,46.12c-1.369,31.43-7.27,70.66-33.84,81.86
		c-6.941,0.625-15.662,2.738-22.605,2.738c-5.169,0-9.352-1.171-11.084-4.999c4.569-22.859,6.26-49.159,6.83-69.199
		c-4.479,0.214-8.899,0.313-13.229,0.313c-46.446,0-83.476-11.426-94.992-15.414c-14.541,62.176-37.127,72.903-53.436,72.903
		c-0.146,0-0.29-0.001-0.434-0.003c-6.66-0.08-18.289-4.576-18.46-9.55c4.27-3.471,12.18-86.261,14.11-107.15
		c-9.45-11.47-15.52-23.27-18.52-35.16c-1.56-1.27-3.12-2.59-4.68-3.939c-37.42-41.971-46.75-84.69-43.23-121.681
		c-6.48-24.81-15.83-66.15-14.57-94.16c2.86-47.399,12.35-63.58,13.72-93.39C19.048,4.899,20.953,4.002,23.4,4.002 M23.4,0.003
		c-3.894,0-7.08,1.694-8.971,4.772c-0.354,0.577-0.557,1.233-0.587,1.91C13.235,19.87,11.009,30.288,8.43,42.352
		c-3.151,14.744-6.724,31.456-8.305,57.667c-0.001,0.02-0.002,0.041-0.003,0.061c-1.229,27.339,7.171,66.432,14.518,94.67
		c-1.852,20.438,0.334,40.573,6.5,59.861c7.198,22.515,19.913,44.099,37.792,64.151c0.115,0.129,0.238,0.25,0.369,0.363
		c1.348,1.166,2.586,2.215,3.756,3.183c3.187,11.788,9.211,23.263,17.928,34.147c-5.269,56.739-10.458,97.95-13.003,103.279
		c-0.653,0.757-1.006,1.737-0.971,2.753c0.292,8.507,14.957,13.322,22.409,13.412c0.162,0.002,0.321,0.003,0.482,0.003
		c11.419,0,21.627-4.86,30.341-14.445c10.684-11.754,19.411-31.016,25.962-57.289c14.46,4.636,49.587,14.245,92.125,14.245
		c3.03,0,6.075-0.049,9.094-0.146c-0.646,18.198-2.334,42.817-6.618,64.247c-0.163,0.82-0.066,1.671,0.278,2.434
		c2.207,4.877,7.163,7.35,14.729,7.35c4.502,0,9.506-0.796,14.345-1.564c3.085-0.491,5.998-0.954,8.619-1.19
		c0.411-0.036,0.814-0.137,1.195-0.298c12.994-5.478,22.622-17.517,28.617-35.782c4.073-12.411,6.542-27.739,7.531-46.785
		c27.054-8.69,51.815-22.244,73.749-40.358c-0.458,18.725-3.311,37.448-8.064,52.463c-0.264,0.833-0.247,1.73,0.047,2.554
		c1.364,3.814,5.396,6.583,12.325,8.466c5.238,1.424,10.7,1.929,13.787,1.929c0.421,0,0.812-0.009,1.165-0.026
		c19.229-0.844,27.365-18.807,31.811-32.245c6.072-18.35,9.605-43.622,13.695-72.885c3.049-21.801,6.504-46.508,11.551-71.736
		c0.02-0.086,0.033-0.16,0.043-0.218c0.514-2.571,1.082-5.311,1.74-8.371c0.006-0.021,0.01-0.045,0.014-0.067l0.029-0.155
		c0.016-0.081,0.031-0.174,0.041-0.256c0.012-0.082,0.023-0.162,0.037-0.243c0.021-0.145,0.045-0.288,0.064-0.437
		c0-0.006,0.002-0.012,0.002-0.018c3.859-24.9-2.068-46.732-17.617-64.896c-26.062-30.443-75.307-44.31-110.032-44.31
		c-2.739,0-5.384,0.09-7.878,0.266c0.075-1.369,0.137-2.766,0.185-4.182c2.351-10.025,6.881-22.014,11.265-33.611
		c9.338-24.707,18.158-48.045,10.867-61.174c-0.707-1.271-2.047-2.058-3.496-2.058c-0.038,0-0.075,0.001-0.113,0.001
		c-23.01,0.645-43.78,8.66-67.831,17.94c-9.209,3.554-18.731,7.228-28.963,10.7c-16.152,5.479-21.568,5.945-24.479,6.195
		c-0.33,0.029-0.649,0.057-0.962,0.089c-17.232-2.584-34.88-3.894-52.463-3.894c-29.972,0-54.705,3.797-70.923,7.227
		c-8.595-13.244-23.518-30.699-38.791-45.295C53.522,15.267,35.094,0.003,23.4,0.003L23.4,0.003z"/>
</g>
<g id="feets">
	<g id="feet_x5F_left_1_">
		<g>
			<path fill-rule="evenodd" clip-rule="evenodd" d="M87.633,450.261c-0.294-0.493-0.465-0.369-1.418-0.143
				c-1.222,15.893-1.717,13.576-5.128,20.98c0.995,0.106,1.995,1.412,2.595,1.319C88.879,459.985,88.121,457.646,87.633,450.261z"/>
		</g>
	</g>
	<g id="feet_x5F_middle">
		<g>
			<path fill-rule="evenodd" clip-rule="evenodd" d="M262.725,467.043c-0.333-0.468-0.493-0.33-1.425-0.025
				c0.09,15.938-0.595,13.671-3.386,21.331c1.001,0.024,2.104,1.243,2.694,1.102C264.767,476.632,263.818,474.363,262.725,467.043z"
				/>
		</g>
	</g>
	<g id="feet_x5F_right">
		<g>
			<path fill-rule="evenodd" clip-rule="evenodd" d="M404.013,406.231c-2.384,15.761-2.708,13.413-6.654,20.548
				c0.985,0.18,1.887,1.556,2.491,1.507c6.096-12.019,5.512-14.406,5.566-21.809C405.159,405.964,404.98,406.075,404.013,406.231z"
				/>
		</g>
	</g>
</g>
<g id="face_3_">
	<g id="mouth">
		<g>
			<path fill-rule="evenodd" clip-rule="evenodd" d="M134.49,309.022c-19.002-1.783-33.957-11.062-36.704-7.104
				c2.075,9.045,25.631,14.701,39.235,14.771c13.604,0.069,38.665-0.605,40.12-9.198
				C178.355,303.095,153.492,310.805,134.49,309.022z"/>
		</g>
	</g>
	<g id="nose">
		<g id="Nose_2_">
			<path fill-rule="evenodd" clip-rule="evenodd" fill="#FFFFFF" d="M137.903,285.326c-4.387,0-8.636-0.362-12.385-0.683
				c-2.906-0.248-5.416-0.462-7.411-0.462l-0.474,0.005c-0.977,0.019-2.096,0.034-3.326,0.034c-18.643,0-31.448-3.806-38.061-11.312
				c-4.098-4.651-5.729-10.637-4.849-17.793c-0.03-8.147,2.599-14.942,7.817-20.198c7.114-7.166,18.649-10.953,33.357-10.953
				c1.726,0,3.512,0.053,5.311,0.158c25.304,1.485,52.277,5.805,51.985,38.477l-0.001,0.175l-0.032,0.172
				C165.686,285.325,144.774,285.326,137.903,285.326z"/>
			<path d="M112.572,225.964c1.693,0,3.422,0.051,5.193,0.155c26.446,1.552,50.374,6.021,50.103,36.462
				c-3.242,17.489-17.017,20.745-29.965,20.745c-7.678,0-15.065-1.145-19.796-1.145c-0.174,0-0.345,0.002-0.512,0.005
				c-0.965,0.019-2.071,0.034-3.287,0.034c-14.335,0-44.063-2.158-40.909-26.986C73.259,236.028,88.984,225.964,112.572,225.964
				 M112.577,221.964v4V221.964h-0.004c-15.254,0-27.28,3.992-34.777,11.545c-5.499,5.539-8.399,12.964-8.397,21.488
				c-0.918,7.692,0.88,14.162,5.349,19.233c7.009,7.956,20.32,11.99,39.562,11.99c1.244,0,2.376-0.016,3.364-0.035
				c0.143-0.003,0.288-0.004,0.436-0.004c1.91,0,4.38,0.211,7.241,0.455c3.789,0.323,8.083,0.689,12.555,0.689
				c8.544,0,15.265-1.409,20.547-4.308c7.164-3.931,11.656-10.562,13.352-19.708l0.063-0.344l0.003-0.35
				c0.136-15.284-5.616-26.253-17.097-32.601c-10.194-5.637-23.698-7.123-36.771-7.891
				C116.163,222.019,114.338,221.964,112.577,221.964L112.577,221.964z"/>
		</g>
		<g id="nose_x5F_left_2_">
			<g>
				
					<ellipse transform="matrix(0.0615 -0.9981 0.9981 0.0615 -163.8268 342.318)" fill-rule="evenodd" clip-rule="evenodd" cx="100.116" cy="258.275" rx="10.544" ry="7.252"/>
			</g>
		</g>
		<g id="nose_x5F_right_2_">
			<g>
				
					<ellipse transform="matrix(0.0615 -0.9981 0.9981 0.0615 -134.3987 377.7452)" fill-rule="evenodd" clip-rule="evenodd" cx="133.678" cy="260.343" rx="10.544" ry="7.252"/>
			</g>
		</g>
		<g id="nose_x5F_shadow_4_">
			<g>
				<path fill-rule="evenodd" clip-rule="evenodd" d="M146.688,213.438c-0.459-4.153-12.109-5.922-18.445-6.676
					c-6.336-0.753-17.447,0.563-18.644,4.727c1.179,2.034,8.377-1.496,17.27-1.241C135.761,210.502,147.142,215.591,146.688,213.438
					z"/>
			</g>
		</g>
		<g id="nose_x5F_shadow_1_">
			<g>
				<path fill-rule="evenodd" clip-rule="evenodd" d="M161.57,197.443c-0.581-4.153-15.336-5.922-23.36-6.675
					c-8.023-0.754-22.096,0.562-23.61,4.726c1.492,2.034,10.609-1.495,21.871-1.241S162.145,199.596,161.57,197.443z"/>
			</g>
		</g>
	</g>
	<g id="eye_x5F_left">
		<g>
			<circle fill-rule="evenodd" clip-rule="evenodd" cx="78.481" cy="169.89" r="12.62"/>
		</g>
	</g>
	<g id="eye_x5F_right">
		<g>
			<circle fill-rule="evenodd" clip-rule="evenodd" cx="210.786" cy="173.66" r="12.62"/>
		</g>
	</g>
</g>
</svg>
